<svg width="134" height="107" viewBox="0 0 134 107" fill="none" xmlns="http://www.w3.org/2000/svg">
<path d="M66.6599 103.019C75.9557 103.019 84.9725 104.056 93.6176 106.035C98.8232 107.166 103.936 104.244 105.795 99.2492L132.66 24.0383C134.798 18.1949 131.544 11.6917 125.595 10.0894C106.818 4.90573 87.1106 2.07825 66.6599 2.07825C46.3022 2.07825 26.5023 4.90573 7.72486 10.0894C1.77558 11.6917 -1.47794 18.1949 0.660088 24.0383L27.5248 99.2492C29.291 104.244 34.4966 107.26 39.7022 106.035C48.3473 104.056 57.3642 103.019 66.6599 103.019Z" fill="white" fill-opacity="0.3"/>
<path d="M66.0008 103.288C75.1275 103.288 83.9805 104.349 92.4683 106.374C97.5793 107.532 102.599 104.542 104.424 99.4307L130.801 22.4708C132.9 16.4914 129.705 9.83699 123.864 8.1975C105.428 2.89324 86.0796 3.96617e-06 66.0008 5.72151e-06C46.0132 7.46888e-06 26.5733 2.89324 8.13727 8.19751C2.29616 9.837 -0.898201 16.4914 1.20095 22.4708L27.5772 99.4307C29.3113 104.542 34.4223 107.628 39.5333 106.374C48.0211 104.349 56.8741 103.288 66.0008 103.288Z" fill="white" fill-opacity="0.3"/>
</svg>
