<svg width="141" height="38" viewBox="0 0 141 38" fill="none" xmlns="http://www.w3.org/2000/svg">
<path d="M36.5781 0H42.9781V38H36.5781V0ZM65.3781 25.878C65.3781 31.6935 60.2309 32.1571 58.6997 32.1571C54.8741 32.1571 54.1781 28.7554 54.1781 26.7034V12.16H47.7781V26.673C47.7781 30.2754 48.9685 33.2485 51.0549 35.2306C52.8981 36.9831 55.6597 37.9407 58.6517 37.9407C60.7733 37.9407 63.7781 37.313 65.3781 35.9252V38H71.7781V12.16H65.3781V25.878ZM84.5781 3.04H78.1781V12.16H73.3781V18.24H78.1781V38H84.5781V18.24H89.3781V12.16H84.5781V3.04ZM109.533 30.2738C108.14 31.464 106.3 32.1237 104.281 32.1237C99.8293 32.1237 96.5605 29.0183 96.5605 24.7547C96.5605 20.4911 99.7253 17.5165 104.281 17.5165C106.265 17.5165 108.14 18.1442 109.569 19.3344L110.54 20.1278L114.855 16.0299L113.775 15.1042C111.236 12.9261 107.865 11.704 104.279 11.704C96.2789 11.704 90.4693 17.1882 90.4693 24.7228C90.4693 32.2255 96.4181 37.9058 104.279 37.9058C107.932 37.9058 111.338 36.6837 113.845 34.4706L114.889 33.5449L110.506 29.45L109.533 30.2738ZM137.698 14.4126C135.855 12.6616 133.695 11.704 130.703 11.704C128.581 11.704 126.178 12.3318 124.578 13.718V0H118.178V38H124.578V23.7652C124.578 17.9497 128.927 17.4876 130.458 17.4876C134.284 17.4876 134.178 20.8909 134.178 22.9398V38H140.578V22.9718C140.578 19.3694 139.786 16.3962 137.698 14.4126Z" fill="white"/>
<path d="M104.069 20.4258C105.296 20.4258 106.473 20.8889 107.341 21.7133C108.208 22.5377 108.696 23.6558 108.696 24.8216C108.696 25.9875 108.208 27.1056 107.341 27.9299C106.473 28.7543 105.296 29.2175 104.069 29.2175C102.841 29.2175 101.664 28.7543 100.797 27.9299C99.9289 27.1056 99.4414 25.9875 99.4414 24.8216C99.4414 23.6558 99.9289 22.5377 100.797 21.7133C101.664 20.8889 102.841 20.4258 104.069 20.4258Z" fill="white"/>
<path d="M27.6176 28.4559C25.184 30.8347 21.8784 32.1236 18.4 32.1236C11.2704 32.1236 6.0864 26.8036 6.0864 19.5016C6.0864 12.166 11.2704 6.84604 18.4 6.84604C21.8448 6.84604 25.1136 8.13348 27.584 10.4804L28.5568 11.406L32.8352 7.34156L31.896 6.41588C28.3488 2.94572 23.5488 1.06396 18.4 1.06396C7.896 1.06396 0 8.9938 0 19.5335C0 30.0412 7.9312 37.9392 18.4 37.9392C23.584 37.9392 28.384 36.024 31.9312 32.5538L32.8704 31.6281L28.6272 27.4983L27.6176 28.4559Z" fill="white"/>
</svg>
