<svg width="1526" height="298" viewBox="0 0 1526 298" fill="none" xmlns="http://www.w3.org/2000/svg">
<path fill-rule="evenodd" clip-rule="evenodd" d="M65.666 168.713C65.666 167.034 66.3333 165.423 67.521 164.235C68.7087 163.047 70.3196 162.38 71.9993 162.38C73.6791 162.38 75.29 163.047 76.4777 164.235C77.6654 165.423 78.3327 167.034 78.3327 168.713C78.3327 170.393 77.6654 172.004 76.4777 173.192C75.29 174.379 73.6791 175.047 71.9993 175.047C70.3196 175.047 68.7087 174.379 67.521 173.192C66.3333 172.004 65.666 170.393 65.666 168.713ZM71.9993 164.38C70.8501 164.38 69.7479 164.836 68.9352 165.649C68.1226 166.462 67.666 167.564 67.666 168.713C67.666 169.862 68.1226 170.965 68.9352 171.777C69.7479 172.59 70.8501 173.047 71.9993 173.047C73.1486 173.047 74.2508 172.59 75.0635 171.777C75.8761 170.965 76.3327 169.862 76.3327 168.713C76.3327 167.564 75.8761 166.462 75.0635 165.649C74.2508 164.836 73.1486 164.38 71.9993 164.38Z" fill="#090309"/>
<path fill-rule="evenodd" clip-rule="evenodd" d="M60.6985 167.189C60.9264 164.425 62.1855 161.847 64.2257 159.968C66.266 158.089 68.9382 157.046 71.7119 157.046H72.2879C75.0615 157.046 77.7337 158.089 79.774 159.968C81.8142 161.847 83.0733 164.425 83.3012 167.189C83.5548 170.268 82.6036 173.325 80.6479 175.717L74.2572 183.532C73.9837 183.866 73.6393 184.136 73.2489 184.321C72.8585 184.506 72.4319 184.602 71.9999 184.602C71.5678 184.602 71.1412 184.506 70.7508 184.321C70.3604 184.136 70.016 183.866 69.7425 183.532L63.3519 175.717C61.396 173.325 60.4448 170.268 60.6985 167.189ZM71.7119 159.046C69.4405 159.047 67.2523 159.901 65.5816 161.44C63.9109 162.979 62.8799 165.089 62.6932 167.353C62.482 169.916 63.2736 172.46 64.9012 174.45L71.2919 182.266C71.3778 182.372 71.486 182.456 71.6086 182.514C71.7313 182.573 71.8654 182.603 72.0012 182.603C72.137 182.603 72.271 182.573 72.3937 182.514C72.5164 182.456 72.6246 182.372 72.7105 182.266L79.1012 174.45C80.7279 172.46 81.5185 169.915 81.3065 167.353C81.1198 165.089 80.0886 162.978 78.4176 161.439C76.7466 159.901 74.5581 159.046 72.2865 159.046H71.7119Z" fill="#090309"/>
<path d="M77.5237 184.037C77.5237 184.549 74.8365 184.963 71.5216 184.963C68.2068 184.963 65.5195 184.549 65.5195 184.037C65.5195 183.525 68.2068 183.11 71.5216 183.11C74.8365 183.11 77.5237 183.525 77.5237 184.037Z" fill="black"/>
<path d="M1525.5 10.6426H1526V31.9287H1525.5V53.2139H1526V74.5H1525.5V95.7861H1526V117.071H1525.5V138.357H1526V159.643H1525.5V180.929H1526V202.214H1525.5V223.5H1526V244.786H1525.5V266.071H1526V287.357H1525.5V297.5H1515.4V298H1494.21V297.5H1473.01V298H1451.82V297.5H1430.63V298H1409.43V297.5H1388.24V298H1367.04V297.5H1345.85V298H1324.65V297.5H1303.46V298H1282.26V297.5H1261.07V298H1239.88V297.5H1218.68V298H1197.49V297.5H1176.29V298H1155.1V297.5H1133.9V298H1112.71V297.5H1091.51V298H1070.32V297.5H1049.12V298H1027.93V297.5H1006.74V298H985.542V297.5H964.348V298H943.153V297.5H921.959V298H900.765V297.5H879.569V298H858.375V297.5H837.181V298H815.986V297.5H794.792V298H773.598V297.5H752.403V298H731.209V297.5H710.015V298H688.819V297.5H667.625V298H646.431V297.5H625.236V298H604.042V297.5H582.848V298H561.653V297.5H540.459V298H519.264V297.5H498.069V298H476.875V297.5H455.681V298H434.486V297.5H413.292V298H392.098V297.5H370.903V298H349.708V297.5H328.514V298H307.319V297.5H286.125V298H264.931V297.5H243.736V298H222.542V297.5H201.348V298H180.152V297.5H158.958V298H137.764V297.5H116.569V298H95.375V297.5H74.1807V298H52.9863V297.5H31.792V298H10.5977V297.5H0.5V285.775H0V261.326H0.5V236.877H0V212.428H0.5V200.604L9.71387 198.585L9.60645 198.097L9.60547 198.096L28.8193 193.882L28.8203 193.883L28.9277 194.371L48.1416 190.157L48.0342 189.668L67.248 185.454L67.3555 185.942L86.5684 181.729L86.4619 181.24L105.675 177.026L105.782 177.515L124.996 173.301L124.889 172.812L144.102 168.598L144.103 168.599L144.21 169.087L163.424 164.873L163.316 164.385L163.315 164.384L182.529 160.17L182.53 160.171L182.637 160.659L201.851 156.445L201.744 155.957L201.743 155.956L220.956 151.742L220.957 151.743L221.064 152.231L230.671 150.124C234.112 149.369 237.56 148.646 241.012 147.955L240.913 147.465C247.829 146.08 254.766 144.82 261.721 143.689L261.722 143.69L261.802 144.184C268.756 143.053 275.729 142.049 282.716 141.173L282.653 140.677C289.649 139.799 296.66 139.049 303.681 138.428L303.682 138.429L303.726 138.927C310.742 138.306 317.769 137.813 324.803 137.448L324.777 136.948C331.817 136.583 338.863 136.347 345.913 136.238L345.921 136.738C352.961 136.63 360.005 136.651 367.05 136.8L367.061 136.3V136.299C374.105 136.448 381.151 136.725 388.192 137.131V137.132L388.163 137.631C391.678 137.833 395.192 138.068 398.705 138.335L408.524 139.08L408.562 138.582V138.581L428.2 140.073L428.163 140.572L447.802 142.063L447.84 141.565V141.564L467.479 143.056V143.057L467.44 143.556L487.08 145.047L487.116 144.548L506.757 146.039V146.04L506.719 146.538L526.357 148.03L526.395 147.531L546.034 149.022V149.023L545.996 149.521L565.636 151.014L565.672 150.515L585.312 152.006V152.007L585.274 152.505L604.913 153.997L604.95 153.498L624.589 154.989L624.552 155.488L644.19 156.979L644.229 156.481V156.48L663.866 157.973L663.83 158.472L683.469 159.963L683.507 159.465V159.464L703.145 160.956L703.107 161.455L712.927 162.2C716.272 162.454 719.62 162.68 722.968 162.876L722.996 162.377V162.373C729.69 162.765 736.387 163.044 743.086 163.203L743.075 163.703C749.783 163.863 756.493 163.906 763.2 163.833L763.194 163.333L763.193 163.33C769.896 163.257 776.598 163.069 783.294 162.764L783.295 162.767L783.317 163.266C790.018 162.96 796.714 162.539 803.402 162.001L803.362 161.503C810.042 160.966 816.713 160.311 823.374 159.542L823.375 159.545L823.432 160.041C826.763 159.657 830.092 159.243 833.418 158.801L843.909 157.406L843.843 156.91L864.824 154.12L864.891 154.615L885.872 151.825L885.807 151.33L885.806 151.329L906.788 148.539L906.854 149.035L927.835 146.245L927.77 145.749L927.769 145.748L948.75 142.958L948.751 142.959L948.816 143.454L969.798 140.664L969.732 140.168L990.714 137.378L990.779 137.874L1011.76 135.083L1011.7 134.588L1011.69 134.587L1032.68 131.797L1032.74 132.293L1053.72 129.503L1053.66 129.007L1074.64 126.216L1074.64 126.217L1074.71 126.712L1085.2 125.317C1089.33 124.767 1093.46 124.173 1097.58 123.534L1097.5 123.04L1097.5 123.039C1105.74 121.762 1113.95 120.308 1122.12 118.678L1122.12 118.679L1122.22 119.169C1130.4 117.537 1138.55 115.729 1146.65 113.746L1146.53 113.26C1154.63 111.279 1162.68 109.124 1170.69 106.795L1170.83 107.275C1173.83 106.402 1176.82 105.503 1179.81 104.581L1182.8 103.65L1193.23 100.371L1193.08 99.8945L1213.93 93.3359L1213.93 93.3369L1214.08 93.8135L1234.94 87.2559L1234.79 86.7783L1255.64 80.2197L1255.65 80.2207L1255.8 80.6973L1276.65 74.1396L1276.5 73.6621L1297.36 67.1035L1297.36 67.1045L1297.51 67.5811L1318.36 61.0234L1318.21 60.5469L1318.21 60.5459L1339.07 53.9873L1339.07 53.9883L1339.22 54.4658L1349.63 51.1895L1349.63 51.1904L1360.67 48.0205L1360.53 47.54L1360.53 47.5391L1382.59 41.2002L1382.59 41.2012L1382.73 41.6816L1404.79 35.3438L1404.65 34.8623L1426.71 28.5234L1426.72 28.5244L1426.85 29.0049L1448.92 22.666L1448.78 22.1855L1448.78 22.1846L1470.84 15.8467L1470.98 16.3271L1493.04 9.98828L1492.91 9.50781L1514.97 3.16895L1515.11 3.64941L1525.5 0.663086V10.6426Z" fill="url(#paint0_linear_4_3099)" fill-opacity="0.6" stroke="url(#paint1_linear_4_3099)" stroke-dasharray="21 21"/>
<path d="M1391.67 36.7131V26.0464M1391.67 26.0464L1394.96 25.3877C1397.16 24.9473 1399.44 25.1567 1401.53 25.9904C1403.78 26.8934 1406.27 27.0618 1408.63 26.4717L1408.91 26.4011C1409.32 26.2999 1409.68 26.0663 1409.94 25.7372C1410.19 25.4082 1410.33 25.0026 1410.33 24.5851V14.7624C1410.33 14.5194 1410.28 14.2796 1410.17 14.0613C1410.06 13.8429 1409.91 13.6517 1409.72 13.5021C1409.53 13.3525 1409.3 13.2485 1409.07 13.198C1408.83 13.1474 1408.58 13.1517 1408.35 13.2104C1406.17 13.7539 1403.88 13.5981 1401.8 12.7651L1401.53 12.6571C1399.44 11.8237 1397.16 11.6143 1394.96 12.0544L1391.67 12.7131M1391.67 26.0464V22.0464M1391.67 12.7131V10.0464M1391.67 12.7131V16.7131" stroke="black" stroke-width="2" stroke-linecap="round"/>
<ellipse cx="1391.5" cy="36.8799" rx="5.5" ry="1.5" fill="black"/>
<defs>
<linearGradient id="paint0_linear_4_3099" x1="859.203" y1="91.211" x2="846.137" y2="369.488" gradientUnits="userSpaceOnUse">
<stop stop-color="#643CD7" stop-opacity="0.2"/>
<stop offset="1" stop-color="#D03059" stop-opacity="0"/>
</linearGradient>
<linearGradient id="paint1_linear_4_3099" x1="789.493" y1="160.175" x2="796.664" y2="205.41" gradientUnits="userSpaceOnUse">
<stop stop-color="#5B5B5B"/>
<stop offset="0.395341" stop-color="#7A7A7A" stop-opacity="0"/>
<stop offset="1" stop-color="#666666" stop-opacity="0"/>
</linearGradient>
</defs>
</svg>
