<svg width="1451" height="226" viewBox="0 0 1451 226" fill="none" xmlns="http://www.w3.org/2000/svg">
<g clip-path="url(#clip0_18_317)">
<path fill-rule="evenodd" clip-rule="evenodd" d="M63.666 164.713C63.666 163.034 64.3333 161.423 65.521 160.235C66.7087 159.047 68.3196 158.38 69.9993 158.38C71.6791 158.38 73.29 159.047 74.4777 160.235C75.6654 161.423 76.3327 163.034 76.3327 164.713C76.3327 166.393 75.6654 168.004 74.4777 169.192C73.29 170.379 71.6791 171.047 69.9993 171.047C68.3196 171.047 66.7087 170.379 65.521 169.192C64.3333 168.004 63.666 166.393 63.666 164.713ZM69.9993 160.38C68.8501 160.38 67.7479 160.836 66.9352 161.649C66.1226 162.462 65.666 163.564 65.666 164.713C65.666 165.862 66.1226 166.965 66.9352 167.777C67.7479 168.59 68.8501 169.047 69.9993 169.047C71.1486 169.047 72.2508 168.59 73.0635 167.777C73.8761 166.965 74.3327 165.862 74.3327 164.713C74.3327 163.564 73.8761 162.462 73.0635 161.649C72.2508 160.836 71.1486 160.38 69.9993 160.38Z" fill="#090309"/>
<path fill-rule="evenodd" clip-rule="evenodd" d="M58.6985 163.189C58.9264 160.425 60.1855 157.847 62.2257 155.968C64.266 154.089 66.9382 153.046 69.7119 153.046H70.2879C73.0615 153.046 75.7337 154.089 77.774 155.968C79.8142 157.847 81.0733 160.425 81.3012 163.189C81.5548 166.268 80.6036 169.325 78.6479 171.717L72.2572 179.532C71.9837 179.866 71.6393 180.136 71.2489 180.321C70.8585 180.506 70.4319 180.602 69.9999 180.602C69.5678 180.602 69.1412 180.506 68.7508 180.321C68.3604 180.136 68.016 179.866 67.7425 179.532L61.3519 171.717C59.396 169.325 58.4448 166.268 58.6985 163.189ZM69.7119 155.046C67.4405 155.047 65.2523 155.901 63.5816 157.44C61.9109 158.979 60.8799 161.089 60.6932 163.353C60.482 165.916 61.2736 168.46 62.9012 170.45L69.2919 178.266C69.3778 178.372 69.486 178.456 69.6086 178.514C69.7313 178.573 69.8654 178.603 70.0012 178.603C70.137 178.603 70.271 178.573 70.3937 178.514C70.5164 178.456 70.6246 178.372 70.7105 178.266L77.1012 170.45C78.7279 168.46 79.5185 165.915 79.3065 163.353C79.1198 161.089 78.0886 158.978 76.4176 157.439C74.7466 155.901 72.5581 155.046 70.2865 155.046H69.7119Z" fill="#090309"/>
<path d="M75.833 180.037C75.833 180.549 73.129 180.963 69.7935 180.963C66.4579 180.963 63.7539 180.549 63.7539 180.037C63.7539 179.525 66.4579 179.11 69.7935 179.11C73.129 179.11 75.833 179.525 75.833 180.037Z" fill="black"/>
<path d="M1523.5 6.64258H1524V27.9287H1523.5V49.2139H1524V70.5H1523.5V91.7861H1524V113.071H1523.5V134.357H1524V155.643H1523.5V176.929H1524V198.214H1523.5V219.5H1524V240.786H1523.5V262.071H1524V283.357H1523.5V293.5H1513.4V294H1492.21V293.5H1471.01V294H1449.82V293.5H1428.63V294H1407.43V293.5H1386.24V294H1365.04V293.5H1343.85V294H1322.65V293.5H1301.46V294H1280.26V293.5H1259.07V294H1237.88V293.5H1216.68V294H1195.49V293.5H1174.29V294H1153.1V293.5H1131.9V294H1110.71V293.5H1089.51V294H1068.32V293.5H1047.12V294H1025.93V293.5H1004.74V294H983.542V293.5H962.348V294H941.153V293.5H919.959V294H898.765V293.5H877.569V294H856.375V293.5H835.181V294H813.986V293.5H792.792V294H771.598V293.5H750.403V294H729.209V293.5H708.015V294H686.819V293.5H665.625V294H644.431V293.5H623.236V294H602.042V293.5H580.848V294H559.653V293.5H538.459V294H517.264V293.5H496.069V294H474.875V293.5H453.681V294H432.486V293.5H411.292V294H390.098V293.5H368.903V294H347.708V293.5H326.514V294H305.319V293.5H284.125V294H262.931V293.5H241.736V294H220.542V293.5H199.348V294H178.152V293.5H156.958V294H135.764V293.5H114.569V294H93.375V293.5H72.1807V294H50.9863V293.5H29.792V294H8.59766V293.5H-1.5V281.775H-2V257.326H-1.5V232.877H-2V208.428H-1.5V196.604L7.71387 194.585L7.60645 194.097L7.60547 194.096L26.8193 189.882L26.8203 189.883L26.9277 190.371L46.1416 186.157L46.0342 185.668L65.248 181.454L65.3555 181.942L84.5684 177.729L84.4619 177.24L103.675 173.026L103.782 173.515L122.996 169.301L122.889 168.812L142.102 164.598L142.103 164.599L142.21 165.087L161.424 160.873L161.316 160.385L161.315 160.384L180.529 156.17L180.53 156.171L180.637 156.659L199.851 152.445L199.744 151.957L199.743 151.956L218.956 147.742L218.957 147.743L219.064 148.231L228.671 146.124C232.112 145.369 235.56 144.646 239.012 143.955L238.913 143.465C245.829 142.08 252.766 140.82 259.721 139.689L259.722 139.69L259.802 140.184C266.756 139.053 273.729 138.049 280.716 137.173L280.653 136.677C287.649 135.799 294.66 135.049 301.681 134.428L301.682 134.429L301.726 134.927C308.742 134.306 315.769 133.813 322.803 133.448L322.777 132.948C329.817 132.583 336.863 132.347 343.913 132.238L343.921 132.738C350.961 132.63 358.005 132.651 365.05 132.8L365.061 132.3V132.299C372.105 132.448 379.151 132.725 386.192 133.131V133.132L386.163 133.631C389.678 133.833 393.192 134.068 396.705 134.335L406.524 135.08L406.562 134.582V134.581L426.2 136.073L426.163 136.572L445.802 138.063L445.84 137.565V137.564L465.479 139.056V139.057L465.44 139.556L485.08 141.047L485.116 140.548L504.757 142.039V142.04L504.719 142.538L524.357 144.03L524.395 143.531L544.034 145.022V145.023L543.996 145.521L563.636 147.014L563.672 146.515L583.312 148.006V148.007L583.274 148.505L602.913 149.997L602.95 149.498L622.589 150.989L622.552 151.488L642.19 152.979L642.229 152.481V152.48L661.866 153.973L661.83 154.472L681.469 155.963L681.507 155.465V155.464L701.145 156.956L701.107 157.455L710.927 158.2C714.272 158.454 717.62 158.68 720.968 158.876L720.996 158.377V158.373C727.69 158.765 734.387 159.044 741.086 159.203L741.075 159.703C747.783 159.863 754.493 159.906 761.2 159.833L761.194 159.333L761.193 159.33C767.896 159.257 774.598 159.069 781.294 158.764L781.295 158.767L781.317 159.266C788.018 158.96 794.714 158.539 801.402 158.001L801.362 157.503C808.042 156.966 814.713 156.311 821.374 155.542L821.375 155.545L821.432 156.041C824.763 155.657 828.092 155.243 831.418 154.801L841.909 153.406L841.843 152.91L862.824 150.12L862.891 150.615L883.872 147.825L883.807 147.33L883.806 147.329L904.788 144.539L904.854 145.035L925.835 142.245L925.77 141.749L925.769 141.748L946.75 138.958L946.751 138.959L946.816 139.454L967.798 136.664L967.732 136.168L988.714 133.378L988.779 133.874L1009.76 131.083L1009.7 130.588L1009.69 130.587L1030.68 127.797L1030.74 128.293L1051.72 125.503L1051.66 125.007L1072.64 122.216L1072.64 122.217L1072.71 122.712L1083.2 121.317C1087.33 120.767 1091.46 120.173 1095.58 119.534L1095.5 119.04L1095.5 119.039C1103.74 117.762 1111.95 116.308 1120.12 114.678L1120.12 114.679L1120.22 115.169C1128.4 113.537 1136.55 111.729 1144.65 109.746L1144.53 109.26C1152.63 107.279 1160.68 105.124 1168.69 102.795L1168.83 103.275C1171.83 102.402 1174.82 101.503 1177.81 100.581L1180.8 99.6504L1191.23 96.3711L1191.08 95.8945L1211.93 89.3359L1211.93 89.3369L1212.08 89.8135L1232.94 83.2559L1232.79 82.7783L1253.64 76.2197L1253.65 76.2207L1253.8 76.6973L1274.65 70.1396L1274.5 69.6621L1295.36 63.1035L1295.36 63.1045L1295.51 63.5811L1316.36 57.0234L1316.21 56.5469L1316.21 56.5459L1337.07 49.9873L1337.07 49.9883L1337.22 50.4658L1347.63 47.1895L1347.63 47.1904L1358.67 44.0205L1358.53 43.54L1358.53 43.5391L1380.59 37.2002L1380.59 37.2012L1380.73 37.6816L1402.79 31.3438L1402.65 30.8623L1424.71 24.5234L1424.72 24.5244L1424.85 25.0049L1446.92 18.666L1446.78 18.1855L1446.78 18.1846L1468.84 11.8467L1468.98 12.3271L1491.04 5.98828L1490.91 5.50781L1512.97 -0.831055L1513.11 -0.350586L1523.5 -3.33691V6.64258Z" fill="url(#paint0_linear_18_317)" fill-opacity="0.6" stroke="url(#paint1_linear_18_317)" stroke-dasharray="21 21"/>
<path d="M1389.67 32.7131V22.0464M1389.67 22.0464L1392.96 21.3877C1395.16 20.9473 1397.44 21.1567 1399.53 21.9904C1401.78 22.8934 1404.27 23.0618 1406.63 22.4717L1406.91 22.4011C1407.32 22.2999 1407.68 22.0663 1407.94 21.7372C1408.19 21.4082 1408.33 21.0026 1408.33 20.5851V10.7624C1408.33 10.5194 1408.28 10.2796 1408.17 10.0613C1408.06 9.84291 1407.91 9.65168 1407.72 9.5021C1407.53 9.35251 1407.3 9.2485 1407.07 9.19796C1406.83 9.14742 1406.58 9.15167 1406.35 9.21039C1404.17 9.7539 1401.88 9.59808 1399.8 8.76505L1399.53 8.65705C1397.44 7.82366 1395.16 7.61427 1392.96 8.05439L1389.67 8.71305M1389.67 22.0464V18.0464M1389.67 8.71305V6.04639M1389.67 8.71305V12.7131" stroke="black" stroke-width="2" stroke-linecap="round"/>
<ellipse cx="1389.5" cy="32.8799" rx="5.5" ry="1.5" fill="black"/>
</g>
<defs>
<linearGradient id="paint0_linear_18_317" x1="857.203" y1="87.211" x2="844.137" y2="365.488" gradientUnits="userSpaceOnUse">
<stop stop-color="#643CD7" stop-opacity="0.2"/>
<stop offset="1" stop-color="#D03059" stop-opacity="0"/>
</linearGradient>
<linearGradient id="paint1_linear_18_317" x1="787.493" y1="156.175" x2="794.664" y2="201.41" gradientUnits="userSpaceOnUse">
<stop stop-color="#5B5B5B"/>
<stop offset="0.395341" stop-color="#7A7A7A" stop-opacity="0"/>
<stop offset="1" stop-color="#666666" stop-opacity="0"/>
</linearGradient>
<clipPath id="clip0_18_317">
<rect width="1451" height="226" fill="white"/>
</clipPath>
</defs>
</svg>
