<svg width="33" height="33" viewBox="0 0 33 33" fill="none" xmlns="http://www.w3.org/2000/svg">
<path fill-rule="evenodd" clip-rule="evenodd" d="M16.196 32.392C25.1408 32.392 32.392 25.1408 32.392 16.196C32.392 7.25121 25.1408 0 16.196 0C7.25121 0 0 7.25121 0 16.196C0 25.1408 7.25121 32.392 16.196 32.392ZM10.4943 13.2548H13.8573V10.3706C13.8573 7.02589 15.8992 5.2054 18.8828 5.2054C19.8899 5.20183 20.8963 5.25328 21.8978 5.35952V8.85527H19.8403C18.217 8.85527 17.9027 9.62665 17.9027 10.7588V13.2548H21.7839L21.2782 17.1743H17.9029V27.1866H13.8573V17.1743H10.4943V13.2548Z" fill="#040F0F"/>
</svg>
