<svg width="122" height="40" viewBox="0 0 122 40" fill="none" xmlns="http://www.w3.org/2000/svg">
<g clip-path="url(#clip0_7064_11224)">
<path d="M118.108 24.4456L121.49 26.7001C120.392 28.3168 117.767 31.0906 113.228 31.0906C107.592 31.0906 103.395 26.7299 103.395 21.1825C103.395 15.2794 107.636 11.2747 112.754 11.2747C117.9 11.2747 120.422 15.3682 121.238 17.5782L121.683 18.7056L108.423 24.1935C109.431 26.1811 111.004 27.1897 113.228 27.1897C115.453 27.1897 116.995 26.092 118.108 24.4456ZM107.711 20.8713L116.565 17.1928C116.076 15.9618 114.623 15.0868 112.887 15.0868C110.677 15.0868 107.607 17.0447 107.711 20.8713Z" fill="white"/>
<path d="M97.002 1.17407H101.273V30.186H97.002V1.17407Z" fill="white"/>
<path d="M90.2684 12.046H94.3917V29.6667C94.3917 36.9788 90.0755 39.9898 84.9732 39.9898C80.1677 39.9898 77.2755 36.7564 76.1927 34.1312L79.9748 32.5588C80.657 34.1755 82.3034 36.0891 84.9732 36.0891C88.251 36.0891 90.2684 34.0569 90.2684 30.26V28.8362H90.1201C89.141 30.0226 87.2722 31.0905 84.8991 31.0905C79.9451 31.0905 75.4062 26.7743 75.4062 21.2124C75.4062 15.6205 79.9451 11.26 84.8991 11.26C87.2574 11.26 89.141 12.3131 90.1201 13.47H90.2684V12.046ZM90.5648 21.2124C90.5648 17.7119 88.2362 15.1607 85.2698 15.1607C82.2736 15.1607 79.7522 17.7119 79.7522 21.2124C79.7522 24.6681 82.2736 27.1748 85.2698 27.1748C88.2365 27.1898 90.5651 24.6681 90.5651 21.2124" fill="white"/>
<path d="M51.9563 21.1382C51.9563 26.8487 47.5068 31.0461 42.0485 31.0461C36.5904 31.0461 32.1406 26.8339 32.1406 21.1382C32.1406 15.3982 36.5904 11.2156 42.0485 11.2156C47.5068 11.2156 51.9563 15.3982 51.9563 21.1382ZM47.6254 21.1382C47.6254 17.5787 45.0444 15.1311 42.0485 15.1311C39.0525 15.1311 36.4716 17.5787 36.4716 21.1382C36.4716 24.6682 39.0525 27.1453 42.0485 27.1453C45.0447 27.1453 47.6254 24.6682 47.6254 21.1382Z" fill="white"/>
<path d="M73.597 21.1825C73.597 26.893 69.1472 31.0904 63.6891 31.0904C58.2308 31.0904 53.7812 26.8928 53.7812 21.1825C53.7812 15.4425 58.2308 11.2747 63.6891 11.2747C69.1472 11.2747 73.597 15.4278 73.597 21.1825ZM69.251 21.1825C69.251 17.623 66.6703 15.1754 63.6741 15.1754C60.6779 15.1754 58.0972 17.623 58.0972 21.1825C58.0972 24.7125 60.6782 27.1897 63.6741 27.1897C66.6851 27.1897 69.251 24.6978 69.251 21.1825Z" fill="white"/>
<path d="M15.8554 26.7446C9.64059 26.7446 4.77583 21.7313 4.77583 15.5165C4.77583 9.30199 9.64059 4.28866 15.8554 4.28866C19.2075 4.28866 21.6546 5.60866 23.4642 7.29961L26.4456 4.31842C23.9242 1.9008 20.5573 0.0612793 15.8554 0.0612793C7.34178 0.0615174 0.177734 7.00318 0.177734 15.5165C0.177734 24.0299 7.34178 30.9718 15.8554 30.9718C20.4534 30.9718 23.9242 29.4589 26.6384 26.6408C29.4268 23.8522 30.287 19.9365 30.287 16.7625C30.287 15.7687 30.1684 14.7453 30.0349 13.9889H15.8554V18.1122H25.9561C25.6594 20.6932 24.8437 22.4582 23.6423 23.6594C22.1887 25.1279 19.8899 26.7446 15.8554 26.7446Z" fill="white"/>
</g>
<defs>
<clipPath id="clip0_7064_11224">
<rect width="121.905" height="40" fill="white"/>
</clipPath>
</defs>
</svg>
