<svg width="34" height="34" viewBox="0 0 34 34" fill="none" xmlns="http://www.w3.org/2000/svg">
<g clip-path="url(#clip0_7374_10780)">
<path d="M16.5848 19.9859C18.4632 19.9859 19.9859 18.4632 19.9859 16.5848C19.9859 14.7063 18.4632 13.1836 16.5848 13.1836C14.7063 13.1836 13.1836 14.7063 13.1836 16.5848C13.1836 18.4632 14.7063 19.9859 16.5848 19.9859Z" fill="#040F0F"/>
<path d="M16.5847 0.388672C7.63989 0.388672 0.388672 7.63989 0.388672 16.5847C0.388672 25.5295 7.63989 32.7807 16.5847 32.7807C25.5295 32.7807 32.7807 25.5295 32.7807 16.5847C32.7807 7.63989 25.5295 0.388672 16.5847 0.388672ZM26.5911 20.7011C26.5134 22.2409 26.0807 23.7593 24.9585 24.8695C23.8255 25.9902 22.2999 26.4078 20.7453 26.4848H12.4241C10.8693 26.4078 9.3439 25.9905 8.21089 24.8695C7.0887 23.7593 6.65608 22.2409 6.57833 20.7011V12.4683C6.65608 10.9285 7.08877 9.41011 8.21089 8.29984C9.3439 7.17908 10.8695 6.76148 12.4241 6.68458H20.7452C22.3001 6.76148 23.8255 7.17888 24.9585 8.29984C26.0807 9.41011 26.5133 10.9285 26.591 12.4683L26.5911 20.7011Z" fill="#040F0F"/>
<path d="M20.6402 8.56122C18.6133 8.50564 14.5565 8.50564 12.5297 8.56122C11.475 8.59018 10.2792 8.85275 9.52775 9.65542C8.74684 10.4898 8.45175 11.4978 8.42182 12.6255C8.36921 14.6048 8.42182 20.5455 8.42182 20.5455C8.45609 21.6731 8.74684 22.6812 9.52775 23.5156C10.2792 24.3185 11.475 24.5808 12.5297 24.6098C14.5565 24.6654 18.6133 24.6654 20.6402 24.6098C21.6949 24.5808 22.8906 24.3183 23.6421 23.5156C24.423 22.6812 24.7181 21.6732 24.748 20.5455V12.6255C24.7181 11.4978 24.423 10.4898 23.6421 9.65542C22.8904 8.85249 21.6946 8.59018 20.6402 8.56122ZM16.5847 21.8573C15.542 21.8573 14.5228 21.5481 13.6558 20.9688C12.7889 20.3896 12.1132 19.5662 11.7142 18.6029C11.3152 17.6396 11.2108 16.5797 11.4142 15.557C11.6176 14.5344 12.1197 13.595 12.8569 12.8578C13.5942 12.1205 14.5336 11.6184 15.5562 11.415C16.5788 11.2116 17.6388 11.316 18.6021 11.715C19.5654 12.114 20.3887 12.7897 20.968 13.6566C21.5473 14.5236 21.8565 15.5428 21.8565 16.5855C21.8565 17.9837 21.3011 19.3246 20.3124 20.3132C19.3237 21.3019 17.9828 21.8573 16.5847 21.8573ZM21.8789 12.4019C21.6704 12.4018 21.4665 12.3399 21.2932 12.2241C21.1198 12.1082 20.9847 11.9435 20.905 11.7508C20.8252 11.5582 20.8044 11.3462 20.8451 11.1417C20.8858 10.9372 20.9862 10.7493 21.1337 10.6019C21.2812 10.4545 21.469 10.3541 21.6735 10.3134C21.8781 10.2727 22.0901 10.2936 22.2827 10.3734C22.4753 10.4532 22.64 10.5884 22.7558 10.7618C22.8717 10.9352 22.9335 11.139 22.9335 11.3475C22.9335 11.486 22.9062 11.6231 22.8532 11.7511C22.8002 11.879 22.7225 11.9952 22.6246 12.0932C22.5267 12.1911 22.4104 12.2687 22.2825 12.3217C22.1545 12.3747 22.0174 12.4019 21.8789 12.4019Z" fill="#040F0F"/>
</g>
<defs>
<clipPath id="clip0_7374_10780">
<rect width="33.1694" height="33.1694" fill="white"/>
</clipPath>
</defs>
</svg>
