<svg width="76" height="70" viewBox="0 0 76 70" fill="none" xmlns="http://www.w3.org/2000/svg">
<path d="M21.4251 24.3827V18.9756H7.3125V24.3827H10.5503V35.9487H7.3125V41.3558H21.4251V35.9487H18.1873V24.3827H21.4251Z" fill="#00539F"/>
<path d="M36.9999 27.563C36.1276 27.3093 31.6394 26.0246 30.8623 25.7709C30.0851 25.5171 29.4508 25.1524 29.4508 24.6924C29.4508 24.2325 30.1644 23.7409 31.6077 23.7409C36.1593 23.7409 38.3459 26.548 38.3459 26.548C38.3459 26.548 38.5923 26.8762 38.6749 26.994H43.0663V19.3353H38.352V20.7287C37.9919 20.48 35.3336 18.7451 31.2112 18.7451C25.7714 18.7451 22.7422 21.5681 22.7422 25.7867C22.7422 30.0054 26.5643 31.7499 27.6269 32.194C28.6895 32.6381 32.8447 33.8117 34.621 34.3667C36.3972 34.9218 37.0475 35.3183 37.0475 35.6038C37.0475 35.8893 36.2704 36.6347 34.05 36.6347C30.1825 36.6347 28.1908 34.3539 27.8412 33.9123V33.9088C27.7301 33.7599 27.5996 33.5837 27.5554 33.5173C27.5041 33.4405 27.3852 33.2702 27.3028 33.1524H22.9113V41.331H27.8412V39.6231C28.4148 40.0049 31.3511 41.8366 34.8747 41.8366C38.8079 41.8366 43.8195 40.1238 43.8195 34.7791C43.8195 29.4344 37.8722 27.8168 36.9999 27.563Z" fill="#00539F"/>
<path d="M56.3366 18.6719C49.7799 18.6719 44.4023 21.9501 44.4023 30.3185C44.4023 38.6868 50.24 41.8213 56.3652 41.8213C62.4904 41.8213 68.2707 38.7155 68.2707 30.4049C68.2707 22.0942 62.4907 18.6719 56.3366 18.6719ZM56.3942 36.2424C54.151 36.2424 52.7131 35.7248 52.7131 30.2898C52.7131 24.8547 53.7772 24.2795 56.4803 24.2795C58.1194 24.2795 60.1038 24.3945 60.1038 30.1172C60.1038 35.84 58.6373 36.2424 56.3942 36.2424Z" fill="#00539F"/>
<path d="M16.7167 16.5099C18.1906 14.3335 20.0032 12.4042 22.081 10.802C22.9212 11.4232 23.8143 11.9866 24.7532 12.4888C23.1802 14.2422 21.7708 16.1848 21.5374 16.5099H22.4812C23.0477 15.7463 24.2195 14.2104 25.4552 12.8486C26.8058 13.5126 28.2411 14.0556 29.7388 14.4692C29.3401 15.315 29.0388 16.0545 28.8619 16.5099H29.6819C29.8703 16.041 30.1464 15.3869 30.4909 14.6642C32.4014 15.131 34.4032 15.3926 36.4511 15.4325V16.51H37.2124V15.4361C39.2453 15.4213 41.2361 15.1896 43.1399 14.7543C43.4645 15.4408 43.7257 16.0606 43.9063 16.5099H44.7263C44.5562 16.0725 44.2718 15.3735 43.8961 14.5692C45.4205 14.1726 46.8833 13.6438 48.2609 12.9902C49.4492 14.3158 50.5601 15.7729 51.1071 16.5099H52.0508C51.8246 16.1949 50.4882 14.3522 48.9696 12.6395C50.0137 12.0999 51.0036 11.486 51.9289 10.802C54.0067 12.4042 55.8194 14.3335 57.2932 16.5099H58.2089C53.7063 9.56076 45.8839 4.95312 37.0048 4.95312C28.1258 4.95312 20.3034 9.56076 15.8008 16.5099H16.7167ZM30.0784 13.773C28.6538 13.3882 27.287 12.8838 25.9985 12.2666C26.1735 12.0847 26.3485 11.9085 26.5214 11.7416C28.2859 10.0401 31.1881 8.17172 31.8242 7.76952C32.3405 8.05309 32.9038 8.29288 33.503 8.4832C33.0377 9.09347 32.1239 10.3323 31.1288 11.9037C30.7415 12.5152 30.3886 13.1579 30.0784 13.773ZM36.4511 14.6709C34.5231 14.6324 32.638 14.3923 30.8361 13.965C31.1179 13.4141 31.4323 12.8472 31.7719 12.3111C32.9184 10.5009 33.9527 9.14181 34.2973 8.69965C34.9848 8.86116 35.7074 8.9633 36.4511 8.99667V14.6709ZM37.2124 14.6748V9.00529C37.9461 8.99286 38.664 8.91521 39.351 8.77704C39.7448 9.28645 40.7304 10.5963 41.8164 12.3111C42.1736 12.8753 42.5031 13.4734 42.7961 14.0513C41.0005 14.4484 39.1263 14.6605 37.2124 14.6748ZM43.5592 13.871C43.2374 13.2265 42.8673 12.5477 42.4594 11.9037C41.5157 10.4134 40.6448 9.222 40.1605 8.58229C40.7978 8.40327 41.3994 8.17058 41.9519 7.88904C42.8449 8.4615 45.4388 10.1718 47.0667 11.7416C47.2828 11.9501 47.5018 12.1728 47.7205 12.4037C46.4051 13.011 45.0107 13.5027 43.5592 13.871ZM51.2915 10.3261C50.3984 10.9707 49.4441 11.5483 48.4394 12.056C48.1586 11.7548 47.8755 11.4639 47.5952 11.1937C46.0725 9.72532 43.8054 8.18491 42.6946 7.46159C43.0719 7.21698 43.417 6.94648 43.7247 6.652C46.4742 7.43761 49.0268 8.69381 51.2915 10.3261ZM37.0051 5.71438C39.0153 5.71438 40.9691 5.95963 42.8399 6.41867C41.4201 7.57185 39.2928 8.24835 37.0051 8.24835C34.707 8.24835 32.5855 7.574 31.1676 6.41931C33.0391 5.95989 34.9937 5.71438 37.0051 5.71438ZM30.2851 6.652C30.5355 6.89205 30.8097 7.11662 31.1067 7.32368C30.1004 7.97125 27.6216 9.62331 25.9931 11.1935C25.7587 11.4196 25.5223 11.6604 25.2868 11.9094C24.3861 11.4378 23.5272 10.9096 22.7188 10.3261C24.9831 8.69381 27.5356 7.43774 30.2851 6.652Z" fill="#00539F"/>
<path d="M57.2958 43.8937C55.8532 46.0243 54.0858 47.9178 52.063 49.4997C51.0997 48.7752 50.0656 48.1277 48.9721 47.562C50.2894 46.0761 51.4698 44.4924 51.9067 43.8938H50.9587C50.3743 44.6741 49.3513 45.9978 48.2632 47.2116C46.8856 46.5578 45.423 46.0286 43.8983 45.6321C44.2207 44.9418 44.4753 44.33 44.6487 43.8938H43.8262C43.6519 44.3191 43.4201 44.8587 43.1416 45.4478C41.239 45.0131 39.2484 44.7816 37.2138 44.7668V43.8938H36.4526V44.7703C34.403 44.81 32.4013 45.0713 30.4919 45.5375C30.1945 44.9136 29.948 44.3405 29.7649 43.8938H28.9424C29.124 44.3511 29.395 45.0012 29.7396 45.7322C28.2415 46.146 26.8057 46.6883 25.4552 47.3526C24.3204 46.1017 23.2398 44.7044 22.6325 43.8937H21.6845C22.1359 44.5122 23.3827 46.1847 24.7545 47.7135C23.7665 48.2426 22.8284 48.8388 21.9498 49.4996C19.9268 47.9177 18.1595 46.0242 16.717 43.8936H15.8027C20.3054 50.8427 28.1276 55.4503 37.0065 55.4503C45.8853 55.4503 53.7076 50.8428 58.2103 43.8936L57.2958 43.8937ZM43.5609 46.3307C45.0129 46.6989 46.4073 47.1904 47.7229 47.798C47.5038 48.0292 47.2846 48.2523 47.0682 48.4611C45.4453 50.0259 42.8597 51.7322 41.9599 52.3092C41.4075 52.0266 40.8051 51.7939 40.1657 51.6149C40.6509 50.974 41.5195 49.7849 42.4607 48.2988C42.8688 47.6547 43.2389 46.9755 43.5609 46.3307ZM37.2137 45.528C39.1292 45.5422 41.0034 45.7537 42.7978 46.1503C42.5047 46.7286 42.1752 47.3268 41.8175 47.8915C40.7331 49.6039 39.7491 50.9123 39.3541 51.4233C38.669 51.2868 37.9511 51.2097 37.2136 51.1976V45.528H37.2137ZM36.4525 45.5318V51.2054C35.7059 51.2385 34.9826 51.3394 34.2959 51.4998C33.9489 51.0543 32.9179 49.699 31.7733 47.8915C31.4334 47.355 31.1187 46.7877 30.8368 46.2363C32.6377 45.8095 34.5228 45.5702 36.4525 45.5318ZM30.0793 46.4289C30.3897 47.0444 30.7428 47.6871 31.1301 48.2989C32.1245 49.869 33.0376 51.1071 33.5034 51.7179C32.9032 51.9081 32.3405 52.1481 31.8245 52.4324C31.186 52.0285 28.2863 50.1615 26.5229 48.4611C26.3497 48.2941 26.1747 48.1176 25.9994 47.9356C27.2877 47.3182 28.6544 46.8136 30.0793 46.4289ZM22.5822 49.9769C23.4307 49.3532 24.3353 48.7908 25.287 48.2923C25.5227 48.5415 25.7596 48.7827 25.9943 49.0091C27.6224 50.5789 30.1004 52.2306 31.1072 52.8784C30.7485 53.1295 30.4215 53.4056 30.131 53.7053C27.3851 52.9006 24.8381 51.6268 22.5822 49.9769ZM37.0064 54.6892C34.9303 54.6892 32.914 54.4285 30.9878 53.9399C32.3943 52.7038 34.6279 51.9544 37.0064 51.9544C39.382 51.9544 41.6177 52.7043 43.0244 53.94C41.0983 54.4286 39.0822 54.6892 37.0064 54.6892ZM43.8813 53.7053C43.536 53.3494 43.1412 53.0248 42.7009 52.7377C43.8136 52.0131 46.0761 50.4751 47.5965 49.0089C47.8769 48.7386 48.1601 48.4475 48.4411 48.1461C49.4971 48.6802 50.4979 49.2912 51.4304 49.9768C49.1745 51.6269 46.6273 52.9007 43.8813 53.7053Z" fill="#00539F"/>
<path d="M8.76739 63.5252C8.80126 64.155 9.04423 64.5903 9.49655 64.8311C9.72898 64.958 9.99098 65.0213 10.2827 65.0213C10.8279 65.0213 11.2927 64.7942 11.6774 64.3399C12.062 63.8855 12.3346 62.963 12.4953 61.5726C12.2416 61.974 11.9279 62.2562 11.5538 62.4188C11.1798 62.5816 10.7772 62.6629 10.3461 62.6629C9.47117 62.6629 8.77906 62.3907 8.26978 61.8461C7.76037 61.3014 7.50586 60.6006 7.50586 59.7434C7.50586 58.9202 7.75733 58.196 8.26027 57.5712C8.7632 56.9463 9.50505 56.6338 10.4855 56.6338C11.8084 56.6338 12.7214 57.2293 13.2243 58.4205C13.5033 59.0751 13.6427 59.8945 13.6427 60.8787C13.6427 61.9895 13.4758 62.9735 13.142 63.8311C12.5881 65.2587 11.6499 65.9725 10.3271 65.9725C9.43945 65.9725 8.76523 65.7399 8.30467 65.2751C7.84398 64.8102 7.61358 64.2269 7.61358 63.5253H8.76739V63.5252ZM11.7377 61.215C12.1117 60.9175 12.2987 60.3974 12.2987 59.6547C12.2987 58.988 12.1307 58.4911 11.7947 58.164C11.4587 57.8371 11.0307 57.6735 10.5109 57.6735C9.95305 57.6735 9.51025 57.8603 9.18265 58.2337C8.85506 58.6071 8.69126 59.1062 8.69126 59.7307C8.69126 60.3214 8.83489 60.791 9.12239 61.1392C9.40976 61.4873 9.86829 61.6613 10.4981 61.6613C10.9504 61.6613 11.3637 61.5126 11.7377 61.215Z" fill="#00539F"/>
<path d="M20.325 58.0964C20.7308 58.8444 20.9337 59.8695 20.9337 61.1712C20.9337 62.4053 20.7498 63.4259 20.3821 64.2334C19.8496 65.3914 18.9788 65.9704 17.7701 65.9704C16.6796 65.9704 15.8681 65.4972 15.3356 64.5503C14.8918 63.76 14.6699 62.6991 14.6699 61.3677C14.6699 60.3365 14.8031 59.451 15.0693 58.7112C15.568 57.3335 16.4704 56.6445 17.7764 56.6445C18.9514 56.6445 19.8009 57.1286 20.325 58.0964ZM19.1767 64.1444C19.528 63.6204 19.7037 62.6441 19.7037 61.2155C19.7037 60.1842 19.5766 59.3357 19.3227 58.6701C19.0687 58.0044 18.5754 57.6716 17.8431 57.6716C17.1699 57.6716 16.6777 57.9875 16.3666 58.6195C16.0554 59.2513 15.8999 60.1821 15.8999 61.4122C15.8999 62.3377 15.9993 63.0817 16.1983 63.6438C16.503 64.5018 17.0239 64.9308 17.7604 64.9308C18.3531 64.9307 18.8251 64.6686 19.1767 64.1444Z" fill="#00539F"/>
<path d="M27.5438 58.0964C27.9495 58.8444 28.1524 59.8695 28.1524 61.1712C28.1524 62.4053 27.9686 63.4259 27.6009 64.2334C27.0684 65.3914 26.1975 65.9704 24.9889 65.9704C23.8984 65.9704 23.0869 65.4972 22.5544 64.5503C22.1106 63.76 21.8887 62.6991 21.8887 61.3677C21.8887 60.3365 22.0219 59.451 22.2881 58.7112C22.7867 57.3335 23.6892 56.6445 24.9951 56.6445C26.1702 56.6445 27.0197 57.1286 27.5438 58.0964ZM26.3954 64.1444C26.7468 63.6204 26.9225 62.6441 26.9225 61.2155C26.9225 60.1842 26.7954 59.3357 26.5415 58.6701C26.2875 58.0044 25.7942 57.6716 25.0618 57.6716C24.3886 57.6716 23.8965 57.9875 23.5854 58.6195C23.2742 59.2513 23.1186 60.1821 23.1186 61.4122C23.1186 62.3377 23.2181 63.0817 23.417 63.6438C23.7218 64.5018 24.2426 64.9308 24.9791 64.9308C25.5719 64.9307 26.0439 64.6686 26.3954 64.1444Z" fill="#00539F"/>
<path d="M29.9492 59.2928V58.4179C30.7734 58.3375 31.3482 58.2034 31.6736 58.0153C31.999 57.8272 32.242 57.3824 32.4027 56.6807H33.3029V65.7212H32.0857V59.2927L29.9492 59.2928Z" fill="#00539F"/>
<path d="M37.3652 59.0225H38.6903V60.4045H37.3652V59.0225ZM37.3652 64.3415H38.6903V65.7237H37.3652V64.3415Z" fill="#00539F"/>
<path d="M40.4244 63.685C40.7054 63.1061 41.2538 62.5798 42.0696 62.1064L43.2868 61.4027C43.8321 61.0857 44.2145 60.8149 44.4344 60.5906C44.7808 60.239 44.9542 59.8368 44.9542 59.3836C44.9542 58.8543 44.7958 58.434 44.4788 58.1227C44.1618 57.8115 43.7391 57.6558 43.2108 57.6558C42.4289 57.6558 41.8879 57.9527 41.5878 58.5461C41.4272 58.8641 41.3384 59.3048 41.3215 59.8686H40.1614C40.174 59.0782 40.3198 58.4336 40.5987 57.935C41.0931 57.0558 41.9659 56.6162 43.217 56.6162C44.2568 56.6162 45.0165 56.8974 45.4962 57.4594C45.9758 58.0216 46.2159 58.6471 46.2159 59.3361C46.2159 60.0629 45.9601 60.6844 45.4488 61.1999C45.1528 61.5001 44.6223 61.8634 43.8574 62.2904L42.9888 62.7722C42.5745 63.0005 42.2492 63.2182 42.0126 63.4251C41.5899 63.7928 41.3235 64.2007 41.2137 64.6487H46.1715V65.7266H39.9395C39.9816 64.9446 40.1433 64.264 40.4244 63.685Z" fill="#00539F"/>
<path d="M52.8152 58.0964C53.2209 58.8444 53.4238 59.8695 53.4238 61.1712C53.4238 62.4053 53.2401 63.4259 52.8722 64.2334C52.3397 65.3914 51.4689 65.9704 50.2602 65.9704C49.1697 65.9704 48.3582 65.4972 47.8257 64.5503C47.3821 63.76 47.1602 62.6991 47.1602 61.3677C47.1602 60.3365 47.2932 59.451 47.5594 58.7112C48.0582 57.3335 48.9605 56.6445 50.2666 56.6445C51.4415 56.6445 52.291 57.1286 52.8152 58.0964ZM51.6668 64.1444C52.0182 63.6204 52.1938 62.6441 52.1938 61.2155C52.1938 60.1842 52.0667 59.3357 51.8127 58.6701C51.5587 58.0044 51.0655 57.6716 50.3332 57.6716C49.66 57.6716 49.1678 57.9875 48.8567 58.6195C48.5454 59.2513 48.3898 60.1821 48.3898 61.4122C48.3898 62.3377 48.4893 63.0817 48.6884 63.6438C48.9931 64.5018 49.514 64.9308 50.2505 64.9308C50.8434 64.9307 51.3152 64.6686 51.6668 64.1444Z" fill="#00539F"/>
<path d="M55.2188 59.2928V58.4179C56.0429 58.3375 56.6176 58.2034 56.9432 58.0153C57.2686 57.8272 57.5115 57.3824 57.6723 56.6807H58.5726V65.7212H57.3552V59.2927L55.2188 59.2928Z" fill="#00539F"/>
<path d="M62.8009 63.4103C62.877 64.0611 63.1791 64.5113 63.7075 64.7607C63.978 64.8875 64.2909 64.9509 64.6459 64.9509C65.3222 64.9509 65.823 64.7353 66.1485 64.3041C66.4738 63.8731 66.6367 63.3955 66.6367 62.8714C66.6367 62.2374 66.4434 61.7472 66.0567 61.4005C65.6699 61.0539 65.2061 60.8806 64.6651 60.8806C64.2719 60.8806 63.9349 60.9567 63.6539 61.1088C63.3727 61.261 63.1329 61.4724 62.9342 61.7429L61.9452 61.6858L62.6365 56.7979H67.3531V57.9009H63.4921L63.1053 60.4242C63.3166 60.2636 63.5174 60.1432 63.7075 60.0628C64.0457 59.9233 64.4367 59.8537 64.8804 59.8537C65.713 59.8537 66.4189 60.122 66.9978 60.6588C67.5769 61.1955 67.8664 61.8761 67.8664 62.7003C67.8664 63.5583 67.6011 64.3149 67.0708 64.9699C66.5403 65.6251 65.6939 65.9526 64.5316 65.9526C63.7919 65.9526 63.1379 65.7443 62.5695 65.3281C62.0011 64.912 61.6829 64.2726 61.6152 63.4104L62.8009 63.4103Z" fill="#00539F"/>
</svg>
