<svg width="304" height="50" viewBox="0 0 304 50" fill="none" xmlns="http://www.w3.org/2000/svg">
<path d="M45.8824 33.4154H35.052V10.9668C35.052 10.8421 34.9517 10.7412 34.8276 10.7412H33.1541C33.03 10.7412 32.9297 10.8421 32.9297 10.9668V35.0926C32.9297 35.2173 33.03 35.3181 33.1541 35.3181H45.8851C46.0091 35.3181 46.1094 35.2173 46.1094 35.0926V33.6436C46.1094 33.5189 46.0091 33.418 45.8851 33.418" fill="#101820"/>
<path d="M61.8743 17.2847H58.0574V13.7101C58.0574 11.181 58.881 9.95227 60.5782 9.95227C61.2461 9.95227 61.9324 10.1168 62.5633 10.4273C62.6213 10.4565 62.6873 10.4591 62.748 10.4326C62.8061 10.4087 62.8536 10.3583 62.8747 10.2946L63.3103 8.97566C63.3472 8.8642 63.2944 8.74478 63.1889 8.69701C62.3204 8.3069 61.3596 8.08398 60.5492 8.08398C57.6139 8.08398 55.9985 10.0425 55.9985 13.5959V17.2954L53.8049 17.4334C53.6861 17.4413 53.5938 17.5395 53.5938 17.6589V18.9168C53.5938 19.0416 53.6941 19.1424 53.8181 19.1424H55.9958V35.0838C55.9958 35.2086 56.0961 35.3094 56.2202 35.3094H57.8304C57.9544 35.3094 58.0548 35.2086 58.0548 35.0838V19.1424H61.8717C61.9957 19.1424 62.096 19.0416 62.096 18.9168V17.505C62.096 17.3803 61.9957 17.2794 61.8717 17.2794" fill="#101820"/>
<path d="M70.1628 16.8457C66.3564 16.8457 62.3125 20.1709 62.3125 26.3331C62.3125 31.8795 65.7282 35.7541 70.6195 35.7541C73.2274 35.7541 74.8323 34.8836 76.2525 33.992C76.3528 33.9283 76.3871 33.7982 76.3316 33.6921L75.6691 32.4634C75.6401 32.4076 75.5846 32.3652 75.5239 32.3519C75.4606 32.3386 75.3946 32.3519 75.3418 32.3864C73.8821 33.4214 72.4303 33.9044 70.7752 33.9044C67.0955 33.9044 64.5641 31.0383 64.4216 26.7497H76.7646C76.8728 26.7497 76.9678 26.6701 76.9863 26.5613C77.0681 26.0836 77.0813 25.6086 77.0813 25.2052C77.0813 19.9692 74.4945 16.8457 70.1628 16.8457ZM64.4321 24.9664C64.8413 21.2616 67.1774 18.6981 70.1786 18.6981C73.1799 18.6981 75.0541 20.922 75.1148 24.9664H64.4321Z" fill="#101820"/>
<path d="M88.7243 17.2358C88.1674 16.9598 87.6368 16.8457 86.8898 16.8457C85.0579 16.8457 83.3474 18.0134 82.0276 20.1523L81.885 17.4985C81.8797 17.3791 81.7794 17.2862 81.6606 17.2862H80.2986C80.1745 17.2862 80.0742 17.3871 80.0742 17.5118V35.0906C80.0742 35.2154 80.1745 35.3162 80.2986 35.3162H81.9088C82.0328 35.3162 82.1331 35.2154 82.1331 35.0906V23.1777C83.2497 20.4177 84.9048 18.8334 86.6786 18.8334C87.3016 18.8334 87.5998 18.9024 88.1832 19.1147C88.2439 19.1359 88.3099 19.1306 88.3653 19.1014C88.4208 19.0722 88.463 19.0192 88.4789 18.9581L88.8431 17.4932C88.8695 17.3897 88.8194 17.2836 88.7243 17.2358Z" fill="#101820"/>
<path d="M50.401 17.2861H48.7908C48.6667 17.2861 48.5664 17.387 48.5664 17.5117V35.0905C48.5664 35.2153 48.6667 35.3161 48.7908 35.3161H50.401C50.525 35.3161 50.6253 35.2153 50.6253 35.0905V17.5117C50.6253 17.387 50.525 17.2861 50.401 17.2861Z" fill="#101820"/>
<path d="M50.4128 10.667H48.7815C48.5031 10.667 48.2773 10.8939 48.2773 11.1739V12.8139C48.2773 13.0939 48.5031 13.3208 48.7815 13.3208H50.4128C50.6913 13.3208 50.917 13.0939 50.917 12.8139V11.1739C50.917 10.8939 50.6913 10.667 50.4128 10.667Z" fill="#101820"/>
<path d="M103.14 17.2862H101.736C101.617 17.2862 101.519 17.3791 101.511 17.4959L101.419 18.8254C99.9064 17.6286 98.4362 16.8457 96.3588 16.8457C91.7262 16.8457 88.3633 20.837 88.3633 26.3331C88.3633 32.2325 91.1507 35.7541 95.8203 35.7541C97.7446 35.7541 99.6689 34.8863 101.411 33.2356L101.554 35.1066C101.562 35.2233 101.659 35.3162 101.778 35.3162H103.14C103.264 35.3162 103.364 35.2154 103.364 35.0906V17.5118C103.364 17.3871 103.264 17.2862 103.14 17.2862ZM101.305 20.8715V31.102C99.4234 33.0154 97.8 33.8672 96.0526 33.8672C92.5762 33.8672 90.5014 31.0489 90.5014 26.3251C90.5014 22.0657 93.1067 18.7326 96.43 18.7326C98.1432 18.7326 99.6055 19.3721 101.303 20.8715" fill="#101820"/>
<path d="M120.574 17.3814C120.532 17.323 120.464 17.2859 120.39 17.2859H118.742C118.647 17.2859 118.56 17.3469 118.529 17.4398L114.807 28.4876C114.609 29.0714 114.403 29.7163 114.194 30.3771C113.907 31.2741 113.611 32.2003 113.315 33.0495C112.951 32.1313 112.574 31.1334 112.204 30.1648C111.98 29.573 111.763 28.9998 111.56 28.477L107.342 17.4292C107.308 17.3416 107.226 17.2832 107.133 17.2832H105.394C105.32 17.2832 105.249 17.3204 105.206 17.3814C105.164 17.4424 105.156 17.522 105.185 17.591L112.336 35.4246L111.882 36.8736C111.198 38.9303 109.905 41.3824 107.616 41.3824C107.141 41.3824 106.592 41.2365 106.27 41.1118C106.212 41.0905 106.146 41.0932 106.088 41.1224C106.033 41.1516 105.99 41.2046 105.972 41.2657L105.6 42.6642C105.571 42.7704 105.623 42.8818 105.724 42.927C106.246 43.1685 106.949 43.3144 107.603 43.3144C110.298 43.3144 112.407 41.2577 113.698 37.3725L120.603 17.5804C120.627 17.5114 120.617 17.4345 120.574 17.3761" fill="#101820"/>
<path d="M126.934 14.3066C125.461 14.3066 124.266 15.5115 124.266 16.9896C124.266 18.4678 125.464 19.6726 126.934 19.6726C128.405 19.6726 129.603 18.4678 129.603 16.9896C129.603 15.5115 128.405 14.3066 126.934 14.3066ZM126.934 19.256C125.691 19.256 124.68 18.2396 124.68 16.9896C124.68 15.7397 125.691 14.7233 126.934 14.7233C128.178 14.7233 129.189 15.7397 129.189 16.9896C129.189 18.2396 128.178 19.256 126.934 19.256Z" fill="#101820"/>
<path d="M126.534 17.3793H126.954L127.487 18.3506H128.063L127.469 17.3023C127.807 17.1856 128.028 16.9175 128.028 16.4876C128.028 15.8454 127.572 15.6357 126.978 15.6357H126.02V18.3506H126.537V17.3793H126.534ZM126.534 16.0497H126.925C127.31 16.0497 127.519 16.1639 127.519 16.485C127.519 16.8061 127.31 16.9653 126.925 16.9653H126.534V16.0497Z" fill="#101820"/>
<path d="M23.8077 10.6592H2.83571C1.82737 10.6592 1.01172 11.4792 1.01172 12.493V33.5775C1.01172 34.5912 1.82737 35.4113 2.83571 35.4113H23.8077C24.816 35.4113 25.6317 34.5912 25.6317 33.5775V12.493C25.6317 11.4792 24.816 10.6592 23.8077 10.6592ZM8.30506 26.7015C8.30506 26.9536 8.1018 27.1606 7.8484 27.1606H5.11373C4.86296 27.1606 4.65707 26.9562 4.65707 26.7015V23.9521C4.65707 23.7 4.86032 23.493 5.11373 23.493H7.8484C8.09916 23.493 8.30506 23.6973 8.30506 23.9521V26.7015ZM8.30506 22.1183C8.30506 22.3704 8.1018 22.5774 7.8484 22.5774H5.11373C4.86296 22.5774 4.65707 22.3731 4.65707 22.1183V19.369C4.65707 19.1169 4.86032 18.9099 5.11373 18.9099H7.8484C8.09916 18.9099 8.30506 19.1142 8.30506 19.369V22.1183ZM8.30506 17.5352C8.30506 17.7873 8.1018 17.9943 7.8484 17.9943H5.11373C4.86296 17.9943 4.65707 17.79 4.65707 17.5352V14.7859C4.65707 14.5337 4.86032 14.3267 5.11373 14.3267H7.8484C8.09916 14.3267 8.30506 14.5311 8.30506 14.7859V17.5352ZM12.8637 31.2872C12.8637 31.5393 12.6605 31.7463 12.4071 31.7463H9.67239C9.42163 31.7463 9.21573 31.542 9.21573 31.2872V28.5379C9.21573 28.2858 9.41899 28.0788 9.67239 28.0788H12.4071C12.6578 28.0788 12.8637 28.2831 12.8637 28.5379V31.2872ZM12.8637 22.121C12.8637 22.3731 12.6605 22.5801 12.4071 22.5801H9.67239C9.42163 22.5801 9.21573 22.3757 9.21573 22.121V19.3716C9.21573 19.1195 9.41899 18.9125 9.67239 18.9125H12.4071C12.6578 18.9125 12.8637 19.1169 12.8637 19.3716V22.121ZM12.8637 17.5379C12.8637 17.79 12.6605 17.997 12.4071 17.997H9.67239C9.42163 17.997 9.21573 17.7926 9.21573 17.5379V14.7885C9.21573 14.5364 9.41899 14.3294 9.67239 14.3294H12.4071C12.6578 14.3294 12.8637 14.5337 12.8637 14.7885V17.5379ZM17.4224 31.2899C17.4224 31.542 17.2191 31.749 16.9657 31.749H14.2311C13.9803 31.749 13.7744 31.5447 13.7744 31.2899V28.5405C13.7744 28.2884 13.9777 28.0814 14.2311 28.0814H16.9657C17.2165 28.0814 17.4224 28.2858 17.4224 28.5405V31.2899ZM17.4224 26.7068C17.4224 26.9589 17.2191 27.1659 16.9657 27.1659H14.2311C13.9803 27.1659 13.7744 26.9615 13.7744 26.7068V23.9574C13.7744 23.7053 13.9777 23.4983 14.2311 23.4983H16.9657C17.2165 23.4983 17.4224 23.7026 17.4224 23.9574V26.7068ZM17.4224 17.5405C17.4224 17.7926 17.2191 17.9996 16.9657 17.9996H14.2311C13.9803 17.9996 13.7744 17.7953 13.7744 17.5405V14.7912C13.7744 14.539 13.9777 14.3321 14.2311 14.3321H16.9657C17.2165 14.3321 17.4224 14.5364 17.4224 14.7912V17.5405ZM21.9811 31.2925C21.9811 31.5447 21.7778 31.7517 21.5244 31.7517H18.7897C18.539 31.7517 18.3331 31.5473 18.3331 31.2925V28.5432C18.3331 28.2911 18.5363 28.0841 18.7897 28.0841H21.5244C21.7752 28.0841 21.9811 28.2884 21.9811 28.5432V31.2925ZM21.9811 26.7094C21.9811 26.9615 21.7778 27.1685 21.5244 27.1685H18.7897C18.539 27.1685 18.3331 26.9642 18.3331 26.7094V23.9601C18.3331 23.708 18.5363 23.501 18.7897 23.501H21.5244C21.7752 23.501 21.9811 23.7053 21.9811 23.9601V26.7094ZM21.9811 22.1263C21.9811 22.3784 21.7778 22.5854 21.5244 22.5854H18.7897C18.539 22.5854 18.3331 22.3811 18.3331 22.1263V19.3769C18.3331 19.1248 18.5363 18.9178 18.7897 18.9178H21.5244C21.7752 18.9178 21.9811 19.1222 21.9811 19.3769V22.1263Z" fill="#1D51A4"/>
<path d="M165.534 19.161L166.455 18.0332C167.131 18.6834 168.065 19.0602 168.973 19.0602C170.008 19.0602 170.584 18.5825 170.584 17.8607C170.584 17.1388 169.979 16.8628 169.132 16.5019L167.851 15.9367C166.917 15.5466 165.951 14.8088 165.951 13.4341C165.951 11.9161 167.273 10.7432 169.116 10.7432C170.254 10.7432 171.304 11.2049 172.035 11.9135L171.114 13.0414C170.525 12.5345 169.834 12.2452 169.113 12.2452C168.237 12.2452 167.675 12.6513 167.675 13.3306C167.675 14.0551 168.379 14.3152 169.155 14.6469L170.423 15.1671C171.544 15.6447 172.32 16.3533 172.32 17.728C172.32 19.2619 171.053 20.549 168.926 20.549C167.63 20.549 166.423 20.0713 165.531 19.161H165.534Z" fill="#101820"/>
<path d="M174.34 15.6023C174.34 12.5504 176.037 10.7432 178.497 10.7432C180.957 10.7432 182.655 12.5504 182.655 15.6023C182.655 18.6542 180.957 20.549 178.497 20.549C176.037 20.549 174.34 18.6674 174.34 15.6023ZM180.899 15.6023C180.899 13.5058 179.949 12.2452 178.497 12.2452C177.045 12.2452 176.095 13.5031 176.095 15.6023C176.095 17.7015 177.03 19.0602 178.497 19.0602C179.965 19.0602 180.899 17.7147 180.899 15.6023Z" fill="#101820"/>
<path d="M185.332 10.915H187.045V18.9295H190.931V20.3759H185.335V10.915H185.332Z" fill="#101820"/>
<path d="M192.824 16.2094V10.915H194.537V16.3394C194.537 18.3802 195.284 19.0596 196.422 19.0596C197.56 19.0596 198.336 18.3802 198.336 16.3394V10.915H199.991V16.2094C199.991 19.3197 198.624 20.5484 196.422 20.5484C194.221 20.5484 192.824 19.3197 192.824 16.2094Z" fill="#101820"/>
<path d="M204.995 12.3614H202.289V10.915H209.411V12.3614H206.705V20.3759H204.992V12.3614H204.995Z" fill="#101820"/>
<path d="M211.773 10.915H213.487V20.3759H211.773V10.915Z" fill="#101820"/>
<path d="M216.164 15.6023C216.164 12.5504 217.861 10.7432 220.322 10.7432C222.782 10.7432 224.479 12.5504 224.479 15.6023C224.479 18.6542 222.782 20.549 220.322 20.549C217.861 20.549 216.164 18.6674 216.164 15.6023ZM222.724 15.6023C222.724 13.5058 221.773 12.2452 220.322 12.2452C218.87 12.2452 217.919 13.5031 217.919 15.6023C217.919 17.7015 218.854 19.0602 220.322 19.0602C221.789 19.0602 222.724 17.7147 222.724 15.6023Z" fill="#101820"/>
<path d="M227.152 10.915H228.979L231.798 16.1218C232.144 16.7587 232.461 17.5098 232.762 18.2634H232.82C232.719 17.2497 232.603 16.0926 232.603 15.0523V10.915H234.2V20.3759H232.374L229.554 15.1691C229.209 14.5322 228.892 13.7812 228.591 13.0275H228.533C228.633 14.012 228.749 15.1824 228.749 16.2386V20.3759H227.152V10.915Z" fill="#101820"/>
<path d="M241.05 10.915H244.027C246.112 10.915 247.68 11.6528 247.68 13.8502C247.68 16.0475 246.112 16.918 244.082 16.918H242.76V20.3759H241.047V10.915H241.05ZM243.956 15.5433C245.336 15.5433 245.983 14.9939 245.983 13.8502C245.983 12.7064 245.265 12.2871 243.898 12.2871H242.76V15.5406H243.953L243.956 15.5433Z" fill="#101820"/>
<path d="M251.338 10.915H253.352L256.403 20.3759H254.59L253.872 17.8441H250.749L250.031 20.3759H248.289L251.34 10.915H251.338ZM251.137 16.4987H253.497L253.18 15.3708C252.879 14.373 252.605 13.2875 252.33 12.2605H252.272C252.027 13.3008 251.755 14.373 251.451 15.3708L251.135 16.4987H251.137Z" fill="#101820"/>
<path d="M258.355 10.915H261.536C263.508 10.915 265.018 11.6103 265.018 13.736C265.018 15.1691 264.284 16.0502 263.162 16.4403L265.393 20.3759H263.479L261.465 16.703H260.069V20.3759H258.355V10.915ZM261.362 15.3257C262.642 15.3257 263.334 14.7896 263.334 13.7334C263.334 12.6772 262.642 12.2871 261.362 12.2871H260.066V15.3257H261.362Z" fill="#101820"/>
<path d="M269.35 12.3614H266.645V10.915H273.766V12.3614H271.061V20.3759H269.348V12.3614H269.35Z" fill="#101820"/>
<path d="M276.125 10.915H277.952L280.771 16.1218C281.117 16.7587 281.433 17.5098 281.734 18.2634H281.792C281.692 17.2497 281.576 16.0926 281.576 15.0523V10.915H283.173V20.3759H281.346L278.527 15.1691C278.181 14.5322 277.865 13.7812 277.564 13.0275H277.506C277.606 14.012 277.722 15.1824 277.722 16.2386V20.3759H276.125V10.915Z" fill="#101820"/>
<path d="M286.352 10.915H292.035V12.3614H288.065V14.7339H291.43V16.1802H288.065V18.9295H292.18V20.3759H286.352V10.915Z" fill="#101820"/>
<path d="M294.902 10.915H298.083C300.055 10.915 301.565 11.6103 301.565 13.736C301.565 15.1691 300.831 16.0502 299.709 16.4403L301.94 20.3759H300.026L298.012 16.703H296.616V20.3759H294.902V10.915ZM297.909 15.3257C299.189 15.3257 299.881 14.7896 299.881 13.7334C299.881 12.6772 299.189 12.2871 297.909 12.2871H296.613V15.3257H297.909Z" fill="#101820"/>
<path d="M165.534 33.665L166.455 32.5371C167.131 33.1873 168.065 33.5641 168.973 33.5641C170.008 33.5641 170.584 33.0864 170.584 32.3646C170.584 31.6427 169.979 31.3668 169.132 31.0058L167.851 30.4406C166.917 30.0505 165.951 29.3127 165.951 27.938C165.951 26.4201 167.273 25.2471 169.116 25.2471C170.254 25.2471 171.304 25.7088 172.035 26.4174L171.114 27.5453C170.525 27.0384 169.834 26.7491 169.113 26.7491C168.237 26.7491 167.675 27.1552 167.675 27.8345C167.675 28.559 168.379 28.8191 169.155 29.1508L170.423 29.671C171.544 30.1487 172.32 30.8572 172.32 32.2319C172.32 33.7658 171.053 35.0529 168.926 35.0529C167.63 35.0529 166.423 34.5752 165.531 33.665H165.534Z" fill="#808184"/>
<path d="M174.828 25.4189H176.541V34.8798H174.828V25.4189Z" fill="#808184"/>
<path d="M179.707 25.4189H181.42V33.4335H185.306V34.8798H179.71V25.4189H179.707Z" fill="#808184"/>
<path d="M185.359 25.4189H187.173L188.424 30.148C188.712 31.2175 188.928 32.1437 189.245 33.2132H189.303C189.62 32.1437 189.82 31.2175 190.124 30.148L191.462 25.4189H193.218L190.253 34.8798H188.223L185.359 25.4189Z" fill="#808184"/>
<path d="M195.145 25.4189H200.828V26.8653H196.858V29.2378H200.223V30.6841H196.858V33.4335H200.973V34.8798H195.145V25.4189Z" fill="#808184"/>
<path d="M203.688 25.4189H206.868C208.84 25.4189 210.35 26.1142 210.35 28.2399C210.35 29.673 209.616 30.5541 208.494 30.9442L210.725 34.8798H208.811L206.797 31.2069H205.401V34.8798H203.688V25.4189ZM206.694 29.8296C207.974 29.8296 208.666 29.2935 208.666 28.2373C208.666 27.1811 207.974 26.791 206.694 26.791H205.398V29.8296H206.694Z" fill="#808184"/>
<path d="M147.893 2.41763C147.893 2.05269 147.598 1.75684 147.235 1.75684C146.872 1.75684 146.578 2.05269 146.578 2.41763V46.3514C146.578 46.7164 146.872 47.0122 147.235 47.0122C147.598 47.0122 147.893 46.7164 147.893 46.3514V2.41763Z" fill="#101820"/>
</svg>
