<svg width="42" height="42" viewBox="0 0 42 42" fill="none" xmlns="http://www.w3.org/2000/svg">
<path d="M3.58984 31.2943L6.4479 32.2713L7.42503 29.4133" stroke="white" stroke-width="1.93818" stroke-miterlimit="10" stroke-linecap="round" stroke-linejoin="round"/>
<path d="M6.45766 32.2719C4.2814 29.2378 3 25.5189 3 21.5002C3 11.2828 11.2828 3 21.5002 3C25.5189 3 29.2378 4.2814 32.2719 6.45766" stroke="white" stroke-width="1.93818" stroke-miterlimit="10" stroke-linecap="round" stroke-linejoin="round"/>
<path d="M39.4094 11.7051L36.5513 10.728L35.5742 13.586" stroke="white" stroke-width="1.93818" stroke-miterlimit="10" stroke-linecap="round" stroke-linejoin="round"/>
<path d="M36.5447 10.7283C38.7209 13.7623 40.0023 17.4812 40.0023 21.4999C40.0023 31.7173 31.7195 40.0001 21.5021 40.0001C17.4834 40.0001 13.7645 38.7187 10.7305 36.5425" stroke="white" stroke-width="1.93818" stroke-miterlimit="10" stroke-linecap="round" stroke-linejoin="round"/>
<path fill-rule="evenodd" clip-rule="evenodd" d="M32.0293 14.9761C32.63 15.9891 33.0839 17.0824 33.3759 18.2233L35.7553 18.3554V24.2769L33.3758 24.409C33.0838 25.5499 32.63 26.6433 32.0293 27.6562L33.6195 29.4334L29.4324 33.6204L27.6549 32.0301C26.6421 32.6306 25.5488 33.0845 24.4081 33.3764L24.2759 35.7563H18.3545L18.2223 33.3768C17.0814 33.0848 15.988 32.631 14.9752 32.0303L13.198 33.6204L9.01089 29.4334L10.6012 27.6559C10.0007 26.643 9.54682 25.5498 9.25493 24.409L6.875 24.2769V18.3554L9.25455 18.2233C9.54653 17.0824 10.0003 15.989 10.601 14.9761L9.01099 13.1989L13.1981 9.01187L14.9756 10.6022C15.9884 10.0017 17.0816 9.54779 18.2224 9.25591L18.3546 6.87598H24.276L24.4082 9.25591C25.5489 9.54779 26.6423 10.0016 27.655 10.6021L29.4325 9.01177L33.6196 13.1988L32.0293 14.9761ZM21.3151 15.8388C18.2899 15.8388 15.8377 18.2909 15.8377 21.3162C15.8377 24.3414 18.2899 26.7935 21.3151 26.7935C24.3403 26.7935 26.7924 24.3413 26.7924 21.3162C26.7924 18.291 24.3403 15.8388 21.3151 15.8388Z" fill="white"/>
<circle cx="20.3964" cy="21.4604" r="7.12299" fill="white"/>
</svg>
