<svg width="60" height="60" viewBox="0 0 60 60" fill="none" xmlns="http://www.w3.org/2000/svg">
<path d="M55.5548 0H4.44516C1.98778 0 0 1.98778 0 4.44516V55.5548C0 58.0122 1.98778 60 4.44516 60H55.5548C58.0122 60 60 58.0122 60 55.5548V4.44516C60 1.98778 58.0122 0 55.5548 0ZM17.7742 38.8871C17.7742 39.4982 17.2789 40 16.6613 40H9.99678C9.38565 40 8.88388 39.5047 8.88388 38.8871V32.2226C8.88388 31.6115 9.37922 31.1097 9.99678 31.1097H16.6613C17.2724 31.1097 17.7742 31.605 17.7742 32.2226V38.8871ZM17.7742 27.7774C17.7742 28.3885 17.2789 28.8903 16.6613 28.8903H9.99678C9.38565 28.8903 8.88388 28.395 8.88388 27.7774V21.1129C8.88388 20.5018 9.37922 20 9.99678 20H16.6613C17.2724 20 17.7742 20.4953 17.7742 21.1129V27.7774ZM17.7742 16.6677C17.7742 17.2789 17.2789 17.7806 16.6613 17.7806H9.99678C9.38565 17.7806 8.88388 17.2853 8.88388 16.6677V10.0032C8.88388 9.39209 9.37922 8.89032 9.99678 8.89032H16.6613C17.2724 8.89032 17.7742 9.38566 17.7742 10.0032V16.6677ZM28.8839 50.0032C28.8839 50.6143 28.3885 51.1161 27.771 51.1161H21.1065C20.4953 51.1161 19.9936 50.6208 19.9936 50.0032V43.3387C19.9936 42.7276 20.4889 42.2258 21.1065 42.2258H27.771C28.3821 42.2258 28.8839 42.7211 28.8839 43.3387V50.0032ZM28.8839 27.7839C28.8839 28.395 28.3885 28.8968 27.771 28.8968H21.1065C20.4953 28.8968 19.9936 28.4014 19.9936 27.7839V21.1193C19.9936 20.5082 20.4889 20.0064 21.1065 20.0064H27.771C28.3821 20.0064 28.8839 20.5018 28.8839 21.1193V27.7839ZM28.8839 16.6742C28.8839 17.2853 28.3885 17.7871 27.771 17.7871H21.1065C20.4953 17.7871 19.9936 17.2917 19.9936 16.6742V10.0097C19.9936 9.39852 20.4889 8.89675 21.1065 8.89675H27.771C28.3821 8.89675 28.8839 9.39209 28.8839 10.0097V16.6742ZM39.9936 50.0097C39.9936 50.6208 39.4982 51.1226 38.8807 51.1226H32.2161C31.605 51.1226 31.1032 50.6272 31.1032 50.0097V43.3451C31.1032 42.734 31.5986 42.2322 32.2161 42.2322H38.8807C39.4918 42.2322 39.9936 42.7276 39.9936 43.3451V50.0097ZM39.9936 38.9C39.9936 39.5111 39.4982 40.0129 38.8807 40.0129H32.2161C31.605 40.0129 31.1032 39.5175 31.1032 38.9V32.2354C31.1032 31.6243 31.5986 31.1226 32.2161 31.1226H38.8807C39.4918 31.1226 39.9936 31.6179 39.9936 32.2354V38.9ZM39.9936 16.6806C39.9936 17.2917 39.4982 17.7935 38.8807 17.7935H32.2161C31.605 17.7935 31.1032 17.2982 31.1032 16.6806V10.0161C31.1032 9.40495 31.5986 8.90319 32.2161 8.90319H38.8807C39.4918 8.90319 39.9936 9.39852 39.9936 10.0161V16.6806ZM51.1032 50.0161C51.1032 50.6272 50.6079 51.129 49.9904 51.129H43.3258C42.7147 51.129 42.2129 50.6337 42.2129 50.0161V43.3516C42.2129 42.7404 42.7083 42.2387 43.3258 42.2387H49.9904C50.6015 42.2387 51.1032 42.734 51.1032 43.3516V50.0161ZM51.1032 38.9064C51.1032 39.5175 50.6079 40.0193 49.9904 40.0193H43.3258C42.7147 40.0193 42.2129 39.524 42.2129 38.9064V32.2419C42.2129 31.6308 42.7083 31.129 43.3258 31.129H49.9904C50.6015 31.129 51.1032 31.6243 51.1032 32.2419V38.9064ZM51.1032 27.7967C51.1032 28.4079 50.6079 28.9096 49.9904 28.9096H43.3258C42.7147 28.9096 42.2129 28.4143 42.2129 27.7967V21.1322C42.2129 20.5211 42.7083 20.0193 43.3258 20.0193H49.9904C50.6015 20.0193 51.1032 20.5146 51.1032 21.1322V27.7967Z" fill="#1D51A4"/>
</svg>
