<svg width="34" height="34" viewBox="0 0 34 34" fill="none" xmlns="http://www.w3.org/2000/svg">
<g clip-path="url(#clip0_7374_10770)">
<path d="M16.5847 0C13.3046 0 10.0981 0.972677 7.37075 2.79503C4.64341 4.61738 2.5177 7.20756 1.26244 10.238C0.00718586 13.2685 -0.321247 16.6031 0.318678 19.8202C0.958603 23.0374 2.53814 25.9925 4.85756 28.3119C7.17697 30.6313 10.1321 32.2108 13.3492 32.8508C16.5663 33.4907 19.901 33.1623 22.9314 31.907C25.9619 30.6517 28.5521 28.526 30.3744 25.7987C32.1968 23.0714 33.1694 19.8649 33.1694 16.5847C33.1694 12.1862 31.4221 7.96779 28.3119 4.85755C25.2017 1.74731 20.9833 0 16.5847 0ZM11.7621 25.3135H8.14398V13.6584H11.7621V25.3135ZM9.95084 12.0676C9.53444 12.0693 9.12689 11.9475 8.77968 11.7177C8.43248 11.4878 8.16121 11.1602 8.00017 10.7762C7.83913 10.3922 7.79555 9.96905 7.87494 9.56029C7.95432 9.15153 8.15311 8.77548 8.44617 8.47968C8.73923 8.18387 9.11341 7.98159 9.52142 7.89839C9.92942 7.8152 10.3529 7.85484 10.7384 8.01229C11.1239 8.16974 11.454 8.43794 11.6871 8.78299C11.9202 9.12804 12.0458 9.53444 12.0479 9.95083C12.0491 10.5092 11.8292 11.0453 11.4362 11.4419C11.0432 11.8386 10.5092 12.0635 9.95084 12.0676ZM25.3135 25.3135H21.6976V19.6398C21.6976 18.2868 21.6714 16.552 19.8166 16.552C17.9617 16.552 17.6344 18.0228 17.6344 19.5416V25.3135H14.0316V13.6584H17.5034V15.247H17.5536C18.0359 14.3305 19.2165 13.3638 20.9775 13.3638C24.6392 13.3638 25.3135 15.7773 25.3135 18.9109V25.3135Z" fill="#040F0F"/>
</g>
<defs>
<clipPath id="clip0_7374_10770">
<rect width="33.1694" height="33.1694" fill="white"/>
</clipPath>
</defs>
</svg>
