<svg width="135" height="29" viewBox="0 0 135 29" fill="none" xmlns="http://www.w3.org/2000/svg">
<g clip-path="url(#clip0_7374_10823)">
<path d="M3.58008 22.9092H4.83342V28.9825H3.58008V22.9092Z" fill="#040F0F"/>
<path d="M7.33984 24.0049H8.08309L11.814 27.3047V24.0049H12.7759V28.983H12.0326L8.31627 25.6262V28.983H7.33984V24.0049Z" fill="#040F0F"/>
<path d="M15.9541 24.9008V25.9532H18.8105C19.685 25.9532 19.9619 26.1953 19.9619 27.1341V27.8166C19.9619 28.7412 19.685 28.9971 18.8105 28.9971H15.9541C15.0796 28.9971 14.8027 28.7554 14.8027 27.8166V27.6743L15.7646 27.4754V28.0584H19V26.9207H16.1435C15.2837 26.9207 14.9922 26.6789 14.9922 25.7401V25.1854C14.9922 24.2467 15.2837 24.0049 16.1435 24.0049H18.7523C19.5684 24.0049 19.9036 24.218 19.9036 25.0856V25.1996L18.9709 25.4272V24.9008H15.9541Z" fill="#040F0F"/>
<path d="M21.9727 24.0049H25.9367C26.6508 24.0049 26.9715 24.2608 26.9715 24.972V26.0814C26.9715 26.7784 26.6508 27.0485 25.9367 27.0485H23.0365V28.983H21.9727V24.0049ZM23.0365 24.858V26.1808H25.485C25.8056 26.1808 25.9805 26.1097 25.9805 25.7826V25.2707C25.9805 24.9437 25.8202 24.8725 25.485 24.8725H23.0365V24.858Z" fill="#040F0F"/>
<path d="M28.6758 24.0049H29.7543V28.983H28.6758V24.0049Z" fill="#040F0F"/>
<path d="M31.8672 24.0049H35.8313C36.5455 24.0049 36.8661 24.275 36.8661 24.972V26.1525C36.8661 26.8353 36.5455 27.1054 35.8313 27.1054H35.2336L37.3177 28.983H35.7729L33.9366 27.1054H32.9311V28.983H31.8672V24.0049ZM32.9311 24.858V26.2378H35.3794C35.7 26.2378 35.8749 26.1667 35.8749 25.8396V25.2566C35.8749 24.9292 35.7146 24.858 35.3794 24.858H32.9311Z" fill="#040F0F"/>
<path d="M38.791 24.0049H43.513V24.8867H39.8693V25.9677H41.9973V26.8212H39.8693V28.0442H43.5565V28.9688H38.791V24.0049Z" fill="#040F0F"/>
<path d="M45.2766 24.0049H48.2351C49.9692 24.0049 50.8727 24.9292 50.8727 26.4796C50.8727 28.1582 49.8963 28.983 47.958 28.983H45.2617V24.0049H45.2766ZM47.7393 28.0584C49.0947 28.0584 49.7798 27.7171 49.7798 26.4226C49.7798 25.3844 49.2695 24.9008 48.2496 24.9008H46.3549V28.0584H47.7393Z" fill="#040F0F"/>
<path d="M56.8594 24.0049H60.8091C61.5229 24.0049 61.8436 24.2608 61.8436 24.972V25.5695C61.8436 26.0244 61.5668 26.3231 61.1004 26.4226C61.5958 26.5224 61.8874 26.8637 61.8874 27.3759V28.0159C61.8874 28.6701 61.4355 28.9971 60.532 28.9971H56.8594V24.0049ZM57.9087 24.8155V25.9961H60.3133C60.634 25.9961 60.7943 25.9391 60.7943 25.6403V25.1709C60.7943 24.8725 60.6488 24.8155 60.3133 24.8155H57.9087ZM57.9087 26.8212V28.087H60.3133C60.6778 28.087 60.8382 28.0017 60.8382 27.646V27.2761C60.8382 26.9065 60.6778 26.8353 60.3133 26.8353H57.9087V26.8212Z" fill="#040F0F"/>
<path d="M64.9359 26.75L62.5312 24.0049H63.9741L65.5482 25.8679L67.1364 24.0049H68.3899L65.9997 26.7214V28.983H64.9214V26.75H64.9359Z" fill="#040F0F"/>
<path d="M74.8469 24.9008V25.9532H77.7031C78.5776 25.9532 78.8398 26.1953 78.8398 27.1341V27.8166C78.8398 28.7412 78.5631 28.9971 77.7031 28.9971H74.8469C73.9724 28.9971 73.6953 28.7554 73.6953 27.8166V27.6743L74.6572 27.4754V28.0584H77.8928V26.9207H75.0362C74.1762 26.9207 73.885 26.6789 73.885 25.7401V25.1854C73.885 24.2467 74.1762 24.0049 75.0362 24.0049H77.6451C78.4611 24.0049 78.7963 24.218 78.7963 25.0856V25.1996L77.8634 25.4272V24.9008H74.8469Z" fill="#040F0F"/>
<path d="M81.8988 24.0049H85.2943C86.1543 24.0049 86.431 24.2322 86.431 25.1854V27.8024C86.431 28.7412 86.1543 28.983 85.2943 28.983H81.8988C81.0243 28.983 80.7617 28.7412 80.7617 27.8024V25.1854C80.7617 24.2322 81.0388 24.0049 81.8988 24.0049ZM85.3672 28.0301V24.9292H81.8259V28.0301H85.3672Z" fill="#040F0F"/>
<path d="M88.457 24.0049H89.5357V28.0584H93.0042V28.983H88.4719V24.0049H88.457Z" fill="#040F0F"/>
<path d="M95.6275 28.0584H98.6879V24.0049H99.7662V27.8024C99.7662 28.727 99.4895 28.983 98.615 28.983H95.7004C94.8259 28.983 94.5488 28.7412 94.5488 27.8024V24.0049H95.6275V28.0584Z" fill="#040F0F"/>
<path d="M104.517 28.983H103.438V24.9008H101.311V24.0049H106.63V24.9008H104.517V28.983Z" fill="#040F0F"/>
<path d="M108.191 24.0049H109.27V28.983H108.191V24.0049Z" fill="#040F0F"/>
<path d="M112.432 24.0049H115.828C116.688 24.0049 116.965 24.2322 116.965 25.1854V27.8024C116.965 28.7412 116.688 28.983 115.828 28.983H112.432C111.558 28.983 111.295 28.7412 111.295 27.8024V25.1854C111.281 24.2322 111.558 24.0049 112.432 24.0049ZM115.901 28.0301V24.9292H112.36V28.0301H115.901Z" fill="#040F0F"/>
<path d="M118.99 24.0049H119.734L123.464 27.3047V24.0049H124.426V28.983H123.683L119.967 25.6262V28.983H118.99V24.0049Z" fill="#040F0F"/>
<path d="M127.605 24.9008V25.9532H130.461C131.335 25.9532 131.598 26.1953 131.598 27.1341V27.8166C131.598 28.7412 131.321 28.9971 130.461 28.9971H127.605C126.73 28.9971 126.453 28.7554 126.453 27.8166V27.6743L127.415 27.4754V28.0584H130.651V26.9207H127.794C126.934 26.9207 126.643 26.6789 126.643 25.7401V25.1854C126.643 24.2467 126.934 24.0049 127.794 24.0049H130.403C131.219 24.0049 131.554 24.218 131.554 25.0856V25.1996L130.621 25.4272V24.9008H127.605Z" fill="#040F0F"/>
<path d="M33.5864 0.0078125H30.0449V21.2866H33.5864V0.0078125Z" fill="#D03059"/>
<path d="M15.2815 0.0078125H12.119L3.50586 21.2866H7.03273L15.2815 0.0078125Z" fill="#D03059"/>
<path d="M14.232 5.54299L16.9864 12.7971H11.4338L9.94727 16.6375H18.4584L20.2801 21.2887H24.2588L15.9663 1.0625L14.232 5.54299Z" fill="#D03059"/>
<path d="M48.8151 6.42272L44.5012 0.0078125H39.8086L46.6727 9.67998L48.8151 6.42272Z" fill="#D03059"/>
<path d="M49.7793 13.8208L54.8364 21.2884H59.6458L51.9508 10.5352L49.7793 13.8208Z" fill="#D03059"/>
<path d="M57.8231 0.0078125L53.4511 1.06038L49.6765 6.7641L49.3704 7.23348L40.0723 21.2866H44.1091H43.7595L57.8231 0.0078125Z" fill="#040F0F"/>
<path d="M116.541 -0.0185547H112.984V21.317H116.541V-0.0185547Z" fill="#D03059"/>
<path d="M124.339 13.2664H126.379C127.618 13.2664 128.521 12.9393 129.09 12.2708C129.644 11.6165 129.921 10.5639 129.921 9.12731V4.12055C129.921 2.66971 129.644 1.61717 129.09 0.962868C128.536 0.308564 127.632 -0.0185547 126.379 -0.0185547H117.664V3.67959H124.776C125.403 3.67959 125.84 3.80763 126.073 4.04943C126.306 4.30544 126.423 4.73217 126.423 5.35801V7.91827C126.423 8.54412 126.306 8.98507 126.073 9.24108C125.84 9.49712 125.403 9.61092 124.776 9.61092H117.679V13.2664H120.039L126.35 21.317H131.582L124.339 13.2664Z" fill="#D03059"/>
<path d="M63.8281 -0.0185547V3.7934H71.0132H74.671H79.1017L82.5702 -0.0185547H63.8281Z" fill="#D03059"/>
<path d="M74.655 4.81641H71.0117V21.3159H74.655V4.81641Z" fill="#D03059"/>
<path d="M89.6656 16.609V3.7934H101.019L103.919 0.521944C103.336 0.166333 102.505 -0.0185547 101.427 -0.0185547H89.8988C88.3831 -0.0185547 87.3487 0.337023 86.8094 1.04821C86.2701 1.7594 86.0078 3.08221 86.0078 5.03086V16.2818C86.0078 18.0171 86.2265 19.2688 86.6491 20.0083L89.6656 16.609Z" fill="#D03059"/>
<path d="M101.677 4.63219V17.3055H90.4402L87.3652 20.7619C87.9481 21.1318 88.7935 21.3166 89.8864 21.3166H101.414C102.93 21.3166 103.965 20.9612 104.504 20.25C105.043 19.5385 105.306 18.216 105.306 16.2672V5.03046C105.306 3.28093 105.087 2.02924 104.65 1.27539L101.677 4.63219Z" fill="#D03059"/>
</g>
<defs>
<clipPath id="clip0_7374_10823">
<rect width="135" height="28.8" fill="white"/>
</clipPath>
</defs>
</svg>
