<svg width="157" height="36" viewBox="0 0 157 36" fill="none" xmlns="http://www.w3.org/2000/svg">
<path d="M0.0546875 28.1292H1.59125V35.58H0.0546875V28.1292Z" fill="white"/>
<path d="M4.66406 29.4729H5.57526L10.1493 33.5212V29.4729H11.3285V35.5801H10.4173L5.86113 31.4619V35.5801H4.66406V29.4729Z" fill="white"/>
<path d="M15.224 30.5721V31.8632H18.726C19.798 31.8632 20.1375 32.1602 20.1375 33.3119V34.1492C20.1375 35.2835 19.798 35.5975 18.726 35.5975H15.224C14.152 35.5975 13.8125 35.3009 13.8125 34.1492V33.9746L14.9917 33.7305V34.4458H18.9583V33.05H15.4563C14.4021 33.05 14.0448 32.7534 14.0448 31.6017V30.9212C14.0448 29.7695 14.4021 29.4729 15.4563 29.4729H18.6545C19.655 29.4729 20.066 29.7344 20.066 30.7988V30.9386L18.9225 31.2178V30.5721H15.224Z" fill="white"/>
<path d="M22.6016 29.4729H27.4614C28.3369 29.4729 28.73 29.7869 28.73 30.6593V32.0204C28.73 32.8754 28.3369 33.2068 27.4614 33.2068H23.9058V35.5801H22.6016V29.4729ZM23.9058 30.5195V32.1424H26.9075C27.3006 32.1424 27.515 32.0551 27.515 31.6538V31.0259C27.515 30.6246 27.3185 30.5373 26.9075 30.5373H23.9058V30.5195Z" fill="white"/>
<path d="M30.8223 29.4729H32.1445V35.5801H30.8223V29.4729Z" fill="white"/>
<path d="M34.7363 29.4729H39.5963C40.4718 29.4729 40.8649 29.8043 40.8649 30.6593V32.1076C40.8649 32.9454 40.4718 33.2767 39.5963 33.2767H38.8635L41.4185 35.5801H39.5247L37.2734 33.2767H36.0406V35.5801H34.7363V29.4729ZM36.0406 30.5195V32.2123H39.0422C39.4353 32.2123 39.6496 32.125 39.6496 31.7237V31.0085C39.6496 30.6068 39.4531 30.5195 39.0422 30.5195H36.0406Z" fill="white"/>
<path d="M43.2227 29.4729H49.0117V30.5547H44.5446V31.8809H47.1534V32.928H44.5446V34.4284H49.065V35.5627H43.2227V29.4729Z" fill="white"/>
<path d="M51.1725 29.4729H54.7996C56.9255 29.4729 58.0331 30.6068 58.0331 32.5089C58.0331 34.5682 56.8361 35.5801 54.4599 35.5801H51.1543V29.4729H51.1725ZM54.1918 34.4458C55.8534 34.4458 56.6934 34.0271 56.6934 32.439C56.6934 31.1653 56.0678 30.5721 54.8174 30.5721H52.4945V34.4458H54.1918Z" fill="white"/>
<path d="M65.377 29.4729H70.2192C71.0944 29.4729 71.4874 29.7869 71.4874 30.6593V31.3924C71.4874 31.9505 71.1482 32.317 70.5763 32.439C71.1837 32.5615 71.5412 32.9801 71.5412 33.6085V34.3937C71.5412 35.1962 70.9872 35.5975 69.8795 35.5975H65.377V29.4729ZM66.6633 30.4674V31.9157H69.6114C70.0045 31.9157 70.201 31.8458 70.201 31.4793V30.9034C70.201 30.5373 70.0227 30.4674 69.6114 30.4674H66.6633ZM66.6633 32.928V34.4809H69.6114C70.0583 34.4809 70.2548 34.3763 70.2548 33.9398V33.486C70.2548 33.0326 70.0583 32.9454 69.6114 32.9454H66.6633V32.928Z" fill="white"/>
<path d="M75.2762 32.8407L72.3281 29.4729H74.097L76.0268 31.7585L77.974 29.4729H79.5107L76.5804 32.8055V35.5801H75.2584V32.8407H75.2762Z" fill="white"/>
<path d="M87.4254 30.5721V31.8632H90.9271C91.9992 31.8632 92.3207 32.1602 92.3207 33.3119V34.1492C92.3207 35.2835 91.9814 35.5975 90.9271 35.5975H87.4254C86.3534 35.5975 86.0137 35.3009 86.0137 34.1492V33.9746L87.1929 33.7305V34.4458H91.1597V33.05H87.6576C86.6033 33.05 86.2462 32.7534 86.2462 31.6017V30.9212C86.2462 29.7695 86.6033 29.4729 87.6576 29.4729H90.856C91.8565 29.4729 92.2673 29.7344 92.2673 30.7988V30.9386L91.1237 31.2178V30.5721H87.4254Z" fill="white"/>
<path d="M96.0717 29.4729H100.235C101.289 29.4729 101.628 29.7517 101.628 30.9212V34.1318C101.628 35.2835 101.289 35.5801 100.235 35.5801H96.0717C94.9996 35.5801 94.6777 35.2835 94.6777 34.1318V30.9212C94.6777 29.7517 95.0174 29.4729 96.0717 29.4729ZM100.324 34.411V30.6068H95.9823V34.411H100.324Z" fill="white"/>
<path d="M104.113 29.4729H105.436V34.4458H109.688V35.5801H104.131V29.4729H104.113Z" fill="white"/>
<path d="M112.902 34.4458H116.655V29.4729H117.976V34.1318C117.976 35.2661 117.637 35.5801 116.565 35.5801H112.992C111.92 35.5801 111.58 35.2835 111.58 34.1318V29.4729H112.902V34.4458Z" fill="white"/>
<path d="M123.8 35.5801H122.478V30.5721H119.869V29.4729H126.39V30.5721H123.8V35.5801Z" fill="white"/>
<path d="M128.303 29.4729H129.625V35.5801H128.303V29.4729Z" fill="white"/>
<path d="M133.502 29.4729H137.665C138.719 29.4729 139.059 29.7517 139.059 30.9212V34.1318C139.059 35.2835 138.719 35.5801 137.665 35.5801H133.502C132.43 35.5801 132.108 35.2835 132.108 34.1318V30.9212C132.09 29.7517 132.43 29.4729 133.502 29.4729ZM137.754 34.411V30.6068H133.413V34.411H137.754Z" fill="white"/>
<path d="M141.545 29.4729H142.456L147.03 33.5212V29.4729H148.209V35.5801H147.298L142.742 31.4619V35.5801H141.545V29.4729Z" fill="white"/>
<path d="M152.105 30.5721V31.8632H155.607C156.679 31.8632 157.001 32.1602 157.001 33.3119V34.1492C157.001 35.2835 156.661 35.5975 155.607 35.5975H152.105C151.033 35.5975 150.693 35.3009 150.693 34.1492V33.9746L151.873 33.7305V34.4458H155.839V33.05H152.337C151.283 33.05 150.926 32.7534 150.926 31.6017V30.9212C150.926 29.7695 151.283 29.4729 152.337 29.4729H155.536C156.536 29.4729 156.947 29.7344 156.947 30.7988V30.9386L155.803 31.2178V30.5721H152.105Z" fill="white"/>
<path d="M36.8437 0.0351562H32.502V26.1402H36.8437V0.0351562Z" fill="white"/>
<path d="M14.4015 0.0351562H10.5243L-0.0351562 26.1402H4.28869L14.4015 0.0351562Z" fill="white"/>
<path d="M13.1142 6.82289L16.4912 15.7223H9.68376L7.86133 20.4338H18.2957L20.5291 26.1399H25.4069L15.2405 1.32617L13.1142 6.82289Z" fill="white"/>
<path d="M55.5144 7.90505L50.2256 0.0351562H44.4727L52.8878 11.9011L55.5144 7.90505Z" fill="white"/>
<path d="M56.6953 16.9789L62.8952 26.1402H68.7913L59.3575 12.948L56.6953 16.9789Z" fill="white"/>
<path d="M66.555 0.0351562L61.195 1.32646L56.5675 8.32386L56.1922 8.8997L44.793 26.1402H49.742H49.3134L66.555 0.0351562Z" fill="white"/>
<path d="M138.541 0H134.182V26.1747H138.541V0Z" fill="white"/>
<path d="M148.101 16.2982H150.602C152.121 16.2982 153.229 15.8968 153.926 15.0767C154.605 14.274 154.944 12.9827 154.944 11.2203V5.07791C154.944 3.298 154.605 2.00673 153.926 1.20402C153.247 0.401314 152.139 0 150.602 0H139.918V4.53694H148.637C149.405 4.53694 149.941 4.69401 150.227 4.99066C150.513 5.30473 150.656 5.82824 150.656 6.59604V9.737C150.656 10.5048 150.513 11.0458 150.227 11.3598C149.941 11.6739 149.405 11.8136 148.637 11.8136H139.936V16.2982H142.83L150.567 26.1747H156.981L148.101 16.2982Z" fill="white"/>
<path d="M73.918 0V4.67655H82.7266H87.211H92.6429L96.8952 0H73.918Z" fill="white"/>
<path d="M87.1932 5.93262H82.7266V26.1744H87.1932V5.93262Z" fill="white"/>
<path d="M105.596 20.3989V4.67655H119.514L123.07 0.663091C122.355 0.226822 121.337 0 120.015 0H105.882C104.023 0 102.755 0.436227 102.094 1.30872C101.433 2.18122 101.111 3.80405 101.111 6.19468V19.9975C101.111 22.1264 101.379 23.662 101.897 24.5692L105.596 20.3989Z" fill="white"/>
<path d="M120.317 5.70703V21.2549H106.541L102.771 25.4951C103.486 25.949 104.523 26.1757 105.862 26.1757H119.995C121.854 26.1757 123.122 25.7396 123.783 24.8672C124.444 23.9943 124.766 22.3718 124.766 19.981V6.19563C124.766 4.04928 124.498 2.5137 123.962 1.58887L120.317 5.70703Z" fill="white"/>
</svg>
