<svg width="34" height="34" viewBox="0 0 34 34" fill="none" xmlns="http://www.w3.org/2000/svg">
<g clip-path="url(#clip0_7374_10774)">
<path d="M16.5847 0C7.42522 0 0 7.42522 0 16.5847C0 25.7442 7.42522 33.1694 16.5847 33.1694C25.7442 33.1694 33.1694 25.7442 33.1694 16.5847C33.1694 7.42522 25.7442 0 16.5847 0Z" fill="#040F0F"/>
<path d="M24.4611 10.7796C23.8526 11.1402 23.1873 11.395 22.4936 11.5334C21.9041 10.9151 21.0863 10.5662 20.232 10.5684C18.5491 10.5558 17.1702 11.9011 17.1413 13.5838C17.142 13.8174 17.1698 14.0502 17.2242 14.2774C14.7457 14.1604 12.4309 13.0058 10.8466 11.0962C10.5756 11.5528 10.43 12.0729 10.4244 12.6039C10.4245 13.6277 10.944 14.5814 11.804 15.1368C11.3129 15.1208 10.8325 14.9891 10.4018 14.7523C10.4018 14.7523 10.4018 14.7523 10.4018 14.79C10.3969 16.2604 11.4383 17.5266 12.882 17.8054C12.4269 17.9268 11.9504 17.9448 11.4874 17.8582C11.9037 19.1037 13.0615 19.9502 14.3747 19.969C13.2815 20.8191 11.9374 21.283 10.5527 21.2883C10.3007 21.288 10.049 21.2729 9.79883 21.243C11.2175 22.1404 12.8619 22.6163 14.5406 22.615C19.3277 22.7025 23.2793 18.8926 23.3667 14.1055C23.3677 14.0548 23.3682 14.0041 23.3682 13.9533C23.3682 13.8226 23.3682 13.6919 23.3682 13.5613C23.959 13.1283 24.4693 12.595 24.8759 11.9857C24.3099 12.2335 23.7104 12.3961 23.0968 12.4682C23.7421 12.0904 24.2273 11.4899 24.4611 10.7796Z" fill="white"/>
</g>
<defs>
<clipPath id="clip0_7374_10774">
<rect width="33.1694" height="33.1694" fill="white"/>
</clipPath>
</defs>
</svg>
