<svg width="25" height="25" viewBox="0 0 25 25" fill="none" xmlns="http://www.w3.org/2000/svg">
<path d="M18.2423 13.1484L3.86719 13.1484C3.66206 13.1484 3.46533 13.067 3.32029 12.9219C3.17524 12.7769 3.09375 12.5801 3.09375 12.375C3.09375 12.1699 3.17524 11.9731 3.32029 11.8281C3.46533 11.6831 3.66206 11.6016 3.86719 11.6016L18.2423 11.6016L12.6008 5.96166C12.4556 5.81643 12.374 5.61945 12.374 5.41406C12.374 5.20867 12.4556 5.0117 12.6008 4.86647C12.7461 4.72124 12.9431 4.63965 13.1484 4.63965C13.3538 4.63965 13.5508 4.72124 13.696 4.86647L20.657 11.8274C20.729 11.8993 20.7861 11.9846 20.8251 12.0786C20.8641 12.1725 20.8842 12.2733 20.8842 12.375C20.8842 12.4767 20.8641 12.5775 20.8251 12.6714C20.7861 12.7654 20.729 12.8507 20.657 12.9226L13.696 19.8835C13.5508 20.0288 13.3538 20.1104 13.1484 20.1104C12.9431 20.1104 12.7461 20.0288 12.6008 19.8835C12.4556 19.7383 12.374 19.5413 12.374 19.3359C12.374 19.1306 12.4556 18.9336 12.6008 18.7883L18.2423 13.1484Z" fill="black"/>
</svg>
