<svg width="24" height="24" viewBox="0 0 24 24" fill="none" xmlns="http://www.w3.org/2000/svg">
<path d="M8.9992 10.7851C8.5288 10.3412 7.8232 10.3412 7.3528 10.7851C6.8824 11.2289 6.8824 11.8946 7.3528 12.3385L10.8808 15.6671C11.116 15.889 11.3512 16 11.704 16C12.0568 16 12.292 15.889 12.5272 15.6671L20.7592 6.79066C21.112 6.23588 21.112 5.57014 20.524 5.23727C20.0536 4.9044 19.348 4.9044 18.9952 5.34823L11.704 13.2261L8.9992 10.7851Z" fill="url(#paint0_linear_6160_1762)" fill-opacity="0.8"/>
<path d="M22.8998 10.8C22.1766 10.8 21.6945 11.28 21.6945 12C21.6945 17.28 17.3556 21.6 12.0525 21.6C6.7494 21.6 2.4105 17.28 2.4105 12C2.4105 9.48 3.3747 7.08 5.18258 5.28C6.99045 3.36 9.40096 2.4 12.0525 2.4C12.7757 2.4 13.6193 2.52 14.3425 2.64C14.9451 2.88 15.6683 2.52 15.9093 1.8C16.1504 1.08 15.6683 0.6 15.0656 0.36H14.9451C13.9809 0.12 13.0167 0 12.0525 0C5.42363 0 0 5.4 0 12.12C0 15.24 1.32578 18.36 3.49523 20.52C5.7852 22.8 8.79833 24 11.932 24C18.5609 24 23.9845 18.6 23.9845 12C24.105 11.28 23.5024 10.8 22.8998 10.8Z" fill="url(#paint1_linear_6160_1762)" fill-opacity="0.8"/>
<defs>
<linearGradient id="paint0_linear_6160_1762" x1="14" y1="5" x2="14" y2="16" gradientUnits="userSpaceOnUse">
<stop stop-color="#7B61FF"/>
<stop offset="1" stop-color="#F67798"/>
</linearGradient>
<linearGradient id="paint1_linear_6160_1762" x1="12" y1="0" x2="12" y2="24" gradientUnits="userSpaceOnUse">
<stop stop-color="#7B61FF"/>
<stop offset="1" stop-color="#F67798"/>
</linearGradient>
</defs>
</svg>
